<?xml version="1.0" standalone="no"?>
<!DOCTYPE svg PUBLIC "-//W3C//DTD SVG 1.1//EN" "http://www.w3.org/Graphics/SVG/1.1/DTD/svg11.dtd" >
<svg xmlns="http://www.w3.org/2000/svg">
<metadata></metadata>
<defs>
<font id="misobold" horiz-adv-x="851" >
<font-face units-per-em="2048" ascent="1638" descent="-410" />
<missing-glyph horiz-adv-x="393" />
<glyph horiz-adv-x="2048" />
<glyph horiz-adv-x="2048" />
<glyph unicode="&#xd;" horiz-adv-x="2048" />
<glyph unicode=" "  horiz-adv-x="393" />
<glyph unicode="&#x09;" horiz-adv-x="393" />
<glyph unicode="&#xa0;" horiz-adv-x="393" />
<glyph unicode="!" horiz-adv-x="409" d="M86 78q0 50 35 84.5t84 34.5t84 -34.5t35 -84.5t-35 -84.5t-84 -34.5t-84 34.5t-35 84.5zM106 385v819q0 41 29 70t70 29t69.5 -29t28.5 -70v-819q0 -41 -28.5 -69.5t-69.5 -28.5t-70 28.5t-29 69.5z" />
<glyph unicode="&#x22;" horiz-adv-x="720" d="M98 1040v205q0 41 29 69.5t70 28.5t69.5 -28.5t28.5 -69.5v-205q0 -41 -28.5 -69.5t-69.5 -28.5t-70 28.5t-29 69.5zM426 1040v205q0 41 28.5 69.5t69.5 28.5t70 -28.5t29 -69.5v-205q0 -41 -29 -69.5t-70 -28.5t-69.5 28.5t-28.5 69.5z" />
<glyph unicode="#" horiz-adv-x="937" d="M8 508q0 38 27 65t65 27h113v141h-113q-38 0 -65 28t-27 67q0 38 27 65t65 27h113v317q0 38 27 65t65 27t66 -27t28 -65v-317h142v317q0 38 27 65t65 27t66 -27t28 -65v-317h111q38 0 66 -27t28 -65t-28 -66.5t-66 -28.5h-111v-141h111q38 0 66 -27t28 -65t-28 -66 t-66 -28h-111v-357q0 -38 -28 -66t-66 -28t-65 28t-27 66v357h-142v-357q0 -38 -28 -66t-66 -28t-65 28t-27 66v357h-113q-38 0 -65 28t-27 66zM399 600h142v141h-142v-141z" />
<glyph unicode="$" d="M113.5 280.5q10.5 38.5 46.5 61.5q35 20 74 9t59 -46q35 -56 94 -65q66 -9 111 30q49 40 49 105q-3 66 -51 102l-256 211q-57 44 -88 109t-31 137q-2 72 27.5 137.5t84.5 112.5q41 38 113 63v80q0 41 28.5 69.5t69.5 28.5t70 -28.5t29 -69.5v-82q121 -37 180 -145 q22 -36 11.5 -73.5t-46.5 -61.5q-35 -20 -73.5 -9.5t-61.5 45.5q-27 53 -88 62t-105 -29q-46 -40 -43 -98q0 -57 45 -96l259 -211q119 -99 122 -252q0 -75 -30.5 -142t-85.5 -114q-48 -42 -117 -66v-80q0 -41 -28.5 -69.5t-69.5 -28.5t-70 28.5t-29 69.5v80 q-127 41 -190 152q-20 35 -9.5 73.5z" />
<glyph unicode="%" horiz-adv-x="1214" d="M49 1061q0 113 79.5 192.5t193.5 79.5q112 0 192 -79.5t80 -192.5q0 -114 -79.5 -193.5t-192.5 -79.5q-114 0 -193.5 79.5t-79.5 193.5zM225 1061q0 -41 28 -68.5t69 -27.5t68.5 27.5t27.5 68.5t-27.5 68.5t-68.5 27.5t-69 -27.5t-28 -68.5zM228.5 24.5 q-13.5 38.5 4.5 75.5l574 1188q17 37 55.5 50.5t75.5 -5.5q37 -17 50.5 -55.5t-5.5 -75.5l-573 -1188q-17 -37 -55.5 -50.5t-75.5 5.5q-37 17 -50.5 55.5zM623 242q0 113 79 192.5t193 79.5q113 0 192.5 -80t79.5 -192q0 -114 -79.5 -193.5t-192.5 -79.5q-114 0 -193 79.5 t-79 193.5zM799 242q0 -41 27.5 -69t68.5 -28t68.5 28t27.5 69t-27.5 68.5t-68.5 27.5t-68.5 -27.5t-27.5 -68.5z" />
<glyph unicode="&#x26;" horiz-adv-x="1009" d="M72 250q-25 144 65 264l150 193l-125 159l-6 8q-47 72 -49.5 156.5t38.5 157.5q41 75 116 117t161 38q87 -5 157 -51t105 -123q37 -77 28.5 -161.5t-61.5 -151.5l-116 -149l139 -183l24 -28l37 63q24 36 61.5 46t73.5 -13q35 -23 45 -61.5t-10 -73.5l-78 -129l146 -191 q25 -32 20 -72t-37 -65t-73 -19.5t-66 37.5l-98 129l-14 -22q-71 -120 -222 -158q-141 -35 -266 51q-124 85 -145 232zM264 281q9 -58 64 -101q50 -36 114 -20q61 12 95 67l53 86l-72 93l-106 139l-119 -152q-38 -49 -29 -112zM303 1036q0 -27 16 -53l93 -117l84 109 q39 51 12 110t-94 62q-59 3 -97 -55q-14 -22 -14 -56z" />
<glyph unicode="'" horiz-adv-x="393" d="M98 1040v205q0 41 29 69.5t70 28.5t69.5 -28.5t28.5 -69.5v-205q0 -41 -28.5 -69.5t-69.5 -28.5t-70 28.5t-29 69.5z" />
<glyph unicode="(" horiz-adv-x="548" d="M82 651q0 224 70 428q71 204 213 391q25 31 65 36t72 -19q32 -26 37 -66.5t-21 -72.5q-119 -149 -180 -332q-59 -183 -59 -365q0 -184 59 -364q61 -183 180 -332q26 -32 21 -72.5t-37 -66.5q-32 -25 -72 -20.5t-65 36.5q-142 187 -213 391q-70 204 -70 428z" />
<glyph unicode=")" horiz-adv-x="550" d="M9.5 -97.5q-5.5 40.5 19.5 72.5q121 154 182 332q59 180 59 365q0 181 -59 364q-61 178 -182 332q-25 32 -19.5 72.5t37.5 66.5q32 25 72 20t65 -36q140 -180 211 -391q72 -216 72 -428t-72 -428q-71 -211 -211 -391q-25 -32 -65 -37t-72 20q-32 26 -37.5 66.5z" />
<glyph unicode="*" d="M70 809q10 36 43 55l127 74l-127 74q-33 19 -43 55t10 72q19 33 55 42.5t72 -10.5l127 -71v145q0 38 27 65t65 27t66 -27t28 -65v-145l125 71q36 20 72 10.5t55 -42.5q20 -36 10 -72t-43 -55l-127 -74l127 -74q33 -19 43 -55t-10 -72q-19 -35 -55.5 -44t-71.5 12l-125 71 v-145q0 -38 -28 -66t-66 -28t-65 28t-27 66v145l-127 -71q-35 -21 -71.5 -12t-55.5 44q-20 36 -10 72z" />
<glyph unicode="+" d="M82 590q0 41 28.5 69.5t69.5 28.5h148v148q0 41 28.5 69.5t69.5 28.5t69.5 -28.5t28.5 -69.5v-148h148q41 0 69.5 -28.5t28.5 -69.5t-28.5 -69.5t-69.5 -28.5h-148v-148q0 -41 -28.5 -69.5t-69.5 -28.5t-69.5 28.5t-28.5 69.5v148h-148q-41 0 -69.5 28.5t-28.5 69.5z" />
<glyph unicode="," horiz-adv-x="393" d="M72 98q0 38 27 65t65 27h65q39 0 67 -27t28 -65v-98q0 -61 -33.5 -111t-89.5 -73q-37 -16 -71 -1.5t-52 50.5q-16 37 -1.5 71t52.5 52q8 3 8 12v8q-29 11 -47 35t-18 55z" />
<glyph unicode="-" d="M82 590q0 41 28.5 69.5t69.5 28.5h492q41 0 69.5 -28.5t28.5 -69.5t-28.5 -69.5t-69.5 -28.5h-492q-41 0 -69.5 28.5t-28.5 69.5z" />
<glyph unicode="." horiz-adv-x="393" d="M78 78q0 50 35 84.5t84 34.5t83.5 -34.5t34.5 -84.5t-34.5 -84.5t-83.5 -34.5t-84 34.5t-35 84.5z" />
<glyph unicode="/" d="M88 8l492 1352q13 38 51 55.5t76 3.5q39 -14 56.5 -51.5t0.5 -73.5l-492 -1351q-14 -38 -50.5 -55.5t-74.5 -4.5t-55.5 50t-3.5 75z" />
<glyph unicode="0" d="M82 303v696q0 143 101 243.5t243 100.5q141 0 242.5 -101t101.5 -243v-696q0 -142 -101.5 -243t-242.5 -101q-142 0 -243 100.5t-101 243.5zM279 303q0 -61 42.5 -104t104.5 -43q60 0 103.5 43t43.5 104v696q0 61 -43.5 104.5t-103.5 43.5q-61 0 -104 -43t-43 -105v-696z " />
<glyph unicode="1" d="M131 999q0 41 29 70l246 246q47 47 106 20q29 -10 45 -35t16 -55v-1188q0 -41 -28.5 -69.5t-69.5 -28.5t-69.5 28.5t-28.5 69.5v951q-11 -9 -30 -29.5t-21 -22.5q-10 -12 -27 -26q-29 -29 -70 -29q-40 0 -69 29t-29 69z" />
<glyph unicode="2" d="M92.5 1097.5q-10.5 38.5 9.5 73.5q70 120 207 160q131 37 258 -31q124 -65 164 -202q39 -136 -24 -258q-40 -79 -140 -265q-25 -47 -107 -201t-110 -210h297q41 0 69.5 -28.5t28.5 -69.5t-28.5 -70t-69.5 -29h-459q-54 0 -84 47q-25 44 -4 97l432 819q26 53 11 112 q-18 59 -70 86q-54 28 -113 13q-53 -14 -88 -68q-20 -35 -59 -46t-74 9q-36 23 -46.5 61.5z" />
<glyph unicode="3" d="M64.5 204.5q10.5 38.5 46.5 61.5q35 20 73.5 9.5t61.5 -46.5q25 -43 71 -62t95 -7q48 14 78 53t30 90v123q0 62 -43 104.5t-104 42.5q-41 0 -70 29t-29 70t29 69.5t70 28.5q61 0 104 43t43 105v81q0 50 -30.5 90t-77.5 52q-49 13 -95 -6t-71 -62q-23 -36 -61.5 -46.5 t-73.5 9.5q-36 23 -46.5 61.5t9.5 73.5q58 102 166 146t221 14q115 -29 185.5 -121.5t70.5 -210.5v-81q0 -146 -105 -246q105 -100 105 -246v-123q0 -118 -70.5 -210.5t-185.5 -121.5q-112 -32 -221 13t-166 147q-20 35 -9.5 73.5z" />
<glyph unicode="4" d="M57 375l287 901q12 38 48 56.5t77 6.5q30 -10 49 -36.5t19 -57.5q0 -3 -1 -7.5t-2 -11t-2 -12.5q-13 -42 -48 -150.5t-52 -164.5q-122 -378 -145 -457h176v189q0 41 28.5 69.5t69.5 28.5t69.5 -28.5t28.5 -69.5v-189h66q41 0 69.5 -28.5t28.5 -69.5t-28.5 -69.5 t-69.5 -28.5h-66v-189q0 -41 -28.5 -69.5t-69.5 -28.5t-69.5 28.5t-28.5 69.5v189h-311q-53 0 -80 41q-29 40 -15 88z" />
<glyph unicode="5" d="M113 651v586q0 41 28.5 69.5t69.5 28.5h426q41 0 69.5 -28.5t28.5 -69.5t-28.5 -69.5t-69.5 -28.5h-328v-287q102 34 205 8q112 -29 183 -122t71 -210v-225q0 -118 -70.5 -210.5t-183.5 -121.5q-115 -31 -221 13t-166 147q-22 36 -11.5 73.5t46.5 61.5q35 20 73.5 9.5 t61.5 -46.5q25 -43 71 -62t95 -7q48 14 78 53t30 90v225q0 50 -30.5 90t-77.5 52q-49 13 -95 -6t-71 -62q-17 -30 -48 -42.5t-63 -2.5q-33 8 -53 33.5t-20 60.5z" />
<glyph unicode="6" d="M100 303v696q0 118 70.5 210.5t185.5 121.5q113 30 221 -14t166 -146q20 -35 9.5 -73.5t-45.5 -61.5q-35 -20 -74.5 -9t-59.5 46q-26 43 -72 62t-93 6q-49 -12 -80 -52t-31 -90v-180q67 33 147 33q142 0 243 -101t101 -243v-205q0 -143 -101 -243.5t-243 -100.5 q-141 0 -242.5 101t-101.5 243zM297 303q0 -61 42.5 -104t104.5 -43t105 43t43 104v205q0 61 -43 104t-105 43t-104.5 -42.5t-42.5 -104.5v-205z" />
<glyph unicode="7" d="M76 1073v164q0 41 28.5 69.5t69.5 28.5h492q47 0 77 -37q28 -39 19 -84l-287 -1179q-11 -42 -44.5 -63t-74.5 -11q-35 11 -55 36t-20 60q0 7 4 23q95 393 110 455q96 423 146 604h-269v-66q0 -41 -28.5 -69.5t-69.5 -28.5t-69.5 28.5t-28.5 69.5z" />
<glyph unicode="8" d="M82 303v123q0 142 104 246q-104 104 -104 246v81q0 142 101.5 243t242.5 101q142 0 243 -100.5t101 -243.5v-81q0 -144 -102 -246q102 -102 102 -246v-123q0 -143 -101 -243.5t-243 -100.5q-141 0 -242.5 101t-101.5 243zM279 303q0 -61 43.5 -104t103.5 -43 q62 0 104.5 43t42.5 104v123q0 62 -42.5 104.5t-104.5 42.5q-60 0 -103.5 -43t-43.5 -104v-123zM279 918q0 -61 43.5 -104.5t103.5 -43.5q61 0 104 43t43 105v81q0 62 -43 105t-104 43q-60 0 -103.5 -43.5t-43.5 -104.5v-81z" />
<glyph unicode="9" d="M63 795v204q0 142 102 243t243 101q142 0 243 -100.5t101 -243.5v-696q0 -118 -70.5 -210.5t-183.5 -121.5q-112 -32 -221 13t-166 147q-20 35 -10.5 73.5t44.5 61.5q35 20 75.5 9t60.5 -46q25 -43 71.5 -62t93.5 -7q48 14 78.5 53.5t30.5 89.5v180q-65 -32 -147 -32 q-141 0 -243 101t-102 243zM260 795q0 -61 44 -104.5t104 -43.5q61 0 104 43t43 105v204q0 62 -43 105t-104 43q-60 0 -104 -43.5t-44 -104.5v-204z" />
<glyph unicode=":" horiz-adv-x="393" d="M78 78q0 50 35 84.5t84 34.5t83.5 -34.5t34.5 -84.5t-34.5 -84.5t-83.5 -34.5t-84 34.5t-35 84.5zM78 856q0 50 35 84.5t84 34.5t83.5 -34.5t34.5 -84.5t-34.5 -84.5t-83.5 -34.5t-84 34.5t-35 84.5z" />
<glyph unicode=";" horiz-adv-x="393" d="M72 98q0 38 27 65t65 27h65q39 0 67 -27t28 -65v-98q0 -61 -33.5 -111t-89.5 -73q-37 -16 -71 -1.5t-52 50.5q-16 37 -1.5 71t52.5 52q8 3 8 12v8q-29 11 -47 35t-18 55zM78 856q0 50 35 84.5t84 34.5t83.5 -34.5t34.5 -84.5t-34.5 -84.5t-83.5 -34.5t-84 34.5t-35 84.5z " />
<glyph unicode="&#x3c;" d="M66 590q0 49 34 76l492 409q31 26 72 22.5t67 -34.5q23 -30 23 -64q0 -45 -37 -75q-93 -75 -154 -129q-26 -22 -246 -205q28 -24 115 -96t131 -109q61 -54 154 -129q37 -30 37 -76q0 -33 -23 -63q-26 -31 -67 -35t-72 22l-492 410q-34 27 -34 76z" />
<glyph unicode="=" d="M82 426q0 41 28.5 69.5t69.5 28.5h492q41 0 69.5 -28.5t28.5 -69.5t-28.5 -69.5t-69.5 -28.5h-492q-41 0 -69.5 28.5t-28.5 69.5zM82 754q0 41 28.5 69.5t69.5 28.5h492q41 0 69.5 -28.5t28.5 -69.5t-28.5 -70t-69.5 -29h-492q-41 0 -69.5 29t-28.5 70z" />
<glyph unicode="&#x3e;" d="M98 180q0 46 35 76q79 64 156 129l246 205q-35 27 -122.5 101t-123.5 104q-77 65 -156 129q-35 30 -35 75q0 34 23 64q26 31 66.5 34.5t72.5 -22.5l492 -409q34 -27 34 -76t-34 -76l-492 -410q-32 -26 -72.5 -22t-66.5 35q-23 30 -23 63z" />
<glyph unicode="?" horiz-adv-x="731" d="M29 1097.5q-10 38.5 10 73.5q71 128 229 166q153 28 277 -63q126 -99 135 -250q10 -158 -98 -266l-105 -105q-43 -46 -43 -104v-164q0 -41 -28.5 -69.5t-69.5 -28.5t-69.5 28.5t-28.5 69.5v164q0 137 100 242l104 104q50 50 41 115q-3 64 -57 106q-53 41 -119 29 q-65 -16 -98 -72q-20 -35 -60 -46t-75 9q-35 23 -45 61.5zM217 78q0 50 34.5 84.5t84.5 34.5t84.5 -34.5t34.5 -84.5t-34.5 -84.5t-84.5 -34.5t-84.5 34.5t-34.5 84.5z" />
<glyph unicode="@" horiz-adv-x="1564" d="M96 283v368q0 137 51.5 261.5t149.5 222.5t223 150t262 52q284 0 486 -202q98 -98 149 -222.5t51 -261.5v-381q0 -123 -87 -210t-210 -87h-409q-123 0 -210 87t-87 210t87 210t210 87h112v109q0 32 -18.5 59.5t-50.5 40.5q-31 12 -64.5 5.5t-58.5 -29.5 q-30 -29 -65.5 -28t-65.5 28q-27 27 -27 65q0 37 29 66q64 62 149.5 79.5t171.5 -16.5q87 -36 134 -106q51 -71 51 -164v-518h112q47 0 80 32.5t33 79.5v381q0 210 -145 355q-147 147 -357 147q-207 0 -354 -147t-147 -355v-368q0 -210 147 -357q145 -145 354 -145h226 q38 0 65 -27.5t27 -64.5q0 -38 -27 -65t-65 -27h-226q-137 0 -262 51t-223 149q-201 201 -201 486zM649 270q0 -47 33 -79.5t80 -32.5h112v225h-112q-47 0 -80 -33t-33 -80z" />
<glyph unicode="A" horiz-adv-x="884" d="M20 84l328 1188q8 32 33.5 51.5t60.5 19.5t61.5 -19.5t33.5 -51.5l327 -1188q3 -14 3 -27q-1 -27 -13 -49q-20 -34 -57 -45q-14 -3 -27 -3q-26 0 -48 12q-34 20 -46 59q-5 14 -17 59q-4 16 -19 68.5t-24 87.5h-348q-29 -102 -43 -156t-16 -59q-11 -39 -45 -59 q-23 -13 -49 -12q-13 0 -27 3q-38 11 -58 45q-13 23 -13 49q0 13 3 27zM324 442h237q-6 20 -51 186.5t-68 245.5q-23 -77 -65 -234.5t-53 -197.5z" />
<glyph unicode="B" horiz-adv-x="876" d="M106 66v1171q0 41 29 69.5t70 28.5h246q141 0 242.5 -101t101.5 -243v-73q0 -141 -105 -246q105 -105 105 -246v-115q0 -142 -101.5 -243t-242.5 -101h-246q-41 0 -70 29t-29 70zM303 164h148q61 0 104 43t43 104v115q0 62 -43 104.5t-104 42.5h-148v-409zM303 770h148 q61 0 104 43t43 105v73q0 62 -43 105t-104 43h-148v-369z" />
<glyph unicode="C" horiz-adv-x="788" d="M82 303v696q0 117 71 210t183 122q48 13 94 13q65 0 127 -26q106 -44 166 -147q15 -24 15 -49q0 -12 -4 -24q-10 -38 -46 -62q-23 -13 -47 -13q-13 -1 -27 3q-38 10 -61 47q-25 43 -71 62q-27 11 -56 11q-19 0 -39 -5q-47 -12 -77.5 -52t-30.5 -90v-696q0 -51 30 -90 t78 -53q19 -5 37 -5q29 0 58 12q46 19 71 62q23 37 61 47q13 4 27 3q24 0 47 -13q36 -24 46 -62q3 -12 4 -24q0 -25 -15 -49q-60 -103 -166 -147q-62 -26 -127 -26q-46 0 -94 13q-113 29 -183.5 121.5t-70.5 210.5z" />
<glyph unicode="D" horiz-adv-x="876" d="M106 66v1171q0 41 29 69.5t70 28.5h246q143 0 243.5 -100.5t100.5 -243.5v-680q0 -143 -100.5 -243.5t-243.5 -100.5h-246q-41 0 -70 29t-29 70zM303 164h148q61 0 104 43t43 104v680q0 62 -43 105t-104 43h-148v-975z" />
<glyph unicode="E" horiz-adv-x="753" d="M106 66v1171q0 41 29 69.5t70 28.5h409q41 0 70 -28.5t29 -69.5t-29 -69.5t-70 -28.5h-311v-369h270q41 0 70 -28.5t29 -69.5t-29 -70t-70 -29h-270v-409h311q41 0 70 -28.5t29 -69.5t-29 -70t-70 -29h-409q-41 0 -70 29t-29 70z" />
<glyph unicode="F" horiz-adv-x="737" d="M106 66v1171q0 41 29 69.5t70 28.5h409q41 0 70 -28.5t29 -69.5t-29 -69.5t-70 -28.5h-311v-369h270q41 0 70 -28.5t29 -69.5t-29 -70t-70 -29h-270v-507q0 -41 -28.5 -70t-69.5 -29t-70 29t-29 70z" />
<glyph unicode="G" horiz-adv-x="843" d="M82 303v696q0 118 70.5 210.5t185.5 121.5q46 12 91 12q66 0 130 -26q108 -44 166 -146q13 -23 13 -47q0 -13 -4 -26q-10 -39 -46 -62q-23 -13 -47 -13q-13 0 -27 4q-39 11 -59 46q-26 43 -73 62q-27 11 -55 11q-19 0 -38 -5q-49 -12 -79.5 -52t-30.5 -90v-696 q0 -61 43.5 -104t103.5 -43q62 0 104.5 43t42.5 104v229h-106q-41 0 -69.5 29t-28.5 70t28.5 69.5t69.5 28.5h205q41 0 69.5 -28.5t28.5 -69.5v-328q0 -143 -101 -243.5t-243 -100.5q-141 0 -242.5 101t-101.5 243z" />
<glyph unicode="H" horiz-adv-x="901" d="M106 57v1188q0 41 29 69.5t70 28.5t69.5 -28.5t28.5 -69.5v-475h295v475q0 41 28.5 69.5t69.5 28.5t70 -28.5t29 -69.5v-1188q0 -41 -29 -69.5t-70 -28.5t-69.5 28.5t-28.5 69.5v516h-295v-516q0 -41 -28.5 -69.5t-69.5 -28.5t-70 28.5t-29 69.5z" />
<glyph unicode="I" horiz-adv-x="409" d="M106 57v1188q0 41 29 69.5t70 28.5t69.5 -28.5t28.5 -69.5v-1188q0 -41 -28.5 -69.5t-69.5 -28.5t-70 28.5t-29 69.5z" />
<glyph unicode="J" horiz-adv-x="681" d="M22 66q-4 13 -4 26q0 24 13 47q20 35 60 46q14 4 28 4q24 0 47 -13q33 -20 74 -20q40 0 73 20q74 39 74 127v942q0 41 28.5 69.5t69.5 28.5t70 -28.5t29 -69.5v-942q0 -91 -46.5 -171t-125.5 -128q-77 -45 -174 -45q-96 0 -170 45q-36 23 -46 62z" />
<glyph unicode="K" horiz-adv-x="862" d="M106 57v1188q0 41 29 69.5t70 28.5t69.5 -28.5t28.5 -69.5v-440l354 498q25 33 65 39q9 1 18 1q30 0 55 -18q35 -23 41 -63q1 -8 1 -15q0 -31 -20 -59l-307 -432l317 -656q9 -21 9 -42q0 -18 -6 -34q-14 -38 -50 -55q-21 -10 -43 -10q-15 0 -31 5q-38 13 -57 50l-268 559 l-78 -106v-410q0 -41 -28.5 -69.5t-69.5 -28.5t-70 28.5t-29 69.5z" />
<glyph unicode="L" horiz-adv-x="712" d="M106 66v1179q0 41 29 69.5t70 28.5t69.5 -28.5t28.5 -69.5v-1081h311q41 0 70 -28.5t29 -69.5t-29 -70t-70 -29h-409q-41 0 -70 29t-29 70z" />
<glyph unicode="M" horiz-adv-x="1064" d="M106 57v1188q0 36 20.5 62.5t55.5 33.5q12 3 23 3q21 0 43 -10q32 -16 45 -48q47 -103 84 -178q28 -61 87 -184.5t68 -143.5q150 319 154 328q47 103 84 178q16 34 46 48q20 10 43 9q11 0 22 -2q35 -7 56 -33.5t21 -62.5v-1188q0 -41 -28.5 -69.5t-69.5 -28.5t-69.5 28.5 t-28.5 69.5v748q-12 -25 -32.5 -69.5t-36 -77t-27.5 -56.5q-8 -18 -23.5 -49.5t-21.5 -44.5q-12 -26 -36 -41.5t-53 -15.5q-64 0 -90 57q-6 13 -21.5 44.5t-23.5 49.5q-38 77 -94 203v-748q0 -41 -28.5 -69.5t-69.5 -28.5t-70 28.5t-29 69.5z" />
<glyph unicode="N" horiz-adv-x="983" d="M106 57v1188q0 36 20.5 62.5t55.5 33.5q11 2 22 2q22 1 42 -9q29 -14 47 -46q42 -90 129 -268q24 -50 116 -240.5t142 -292.5v758q0 41 28.5 69.5t69.5 28.5t70 -28.5t29 -69.5v-1188q0 -35 -21.5 -61.5t-54.5 -34.5q-11 -2 -22 -2q-23 -1 -44 9q-31 14 -45 46 q-52 111 -129 269q-222 455 -258 532v-758q0 -41 -28.5 -69.5t-69.5 -28.5t-70 28.5t-29 69.5z" />
<glyph unicode="O" d="M82 303v696q0 143 101 243.5t243 100.5t243 -100.5t101 -243.5v-696q0 -143 -101 -243.5t-243 -100.5t-243 100.5t-101 243.5zM279 303q0 -61 42.5 -104t104.5 -43t104.5 43t42.5 104v696q0 62 -43 105t-104 43t-104 -43t-43 -105v-696z" />
<glyph unicode="P" horiz-adv-x="819" d="M106 57v1180q0 41 29 69.5t70 28.5h246q143 0 243.5 -100.5t100.5 -243.5v-114q0 -143 -101 -244t-243 -101h-148v-475q0 -41 -28.5 -69.5t-69.5 -28.5t-70 28.5t-29 69.5zM303 729h148q61 0 104 43t43 105v114q0 62 -43 105t-104 43h-148v-410z" />
<glyph unicode="Q" d="M82 303v696q0 142 101.5 243t242.5 101q142 0 243 -100.5t101 -243.5v-696q0 -135 -94 -235l82 -142q13 -23 13 -47q0 -13 -4 -27q-11 -39 -46 -59q-24 -16 -50 -16q-12 0 -24 4q-38 11 -59 47l-82 141q-45 -10 -80 -10q-141 0 -242.5 101t-101.5 243zM279 303 q0 -61 42.5 -104t104.5 -43t104.5 43t42.5 104v696q0 62 -43 105t-104 43t-104 -43t-43 -105v-696z" />
<glyph unicode="R" d="M106 57v1180q0 41 29 69.5t70 28.5h246q143 0 243.5 -100.5t100.5 -243.5v-114q0 -99 -50 -181t-135 -125l178 -479q8 -19 8 -37q0 -19 -8 -39q-18 -38 -57 -51q-17 -6 -33 -6q-21 -1 -41 9q-36 16 -53 55l-190 509h-111v-475q0 -41 -28.5 -69.5t-69.5 -28.5t-70 28.5 t-29 69.5zM303 729h148q61 0 104 43t43 105v114q0 62 -43 105t-104 43h-148v-410z" />
<glyph unicode="S" horiz-adv-x="782" d="M60 210q10 39 46 60q23 13 48 13q13 1 26 -3q39 -10 62 -47q36 -60 104 -75q16 -3 32 -3q53 0 95 33q52 36 62 113q1 8 1 15q0 61 -44 108l-328 336q-97 97 -97 233q0 16 1 33q6 75 41 139.5t94 108.5q95 70 206 70q34 0 70 -7q159 -38 230 -166q13 -23 13 -47 q0 -12 -4 -26q-10 -38 -46 -62q-23 -13 -47 -13q-13 0 -27 4q-39 11 -59 46q-36 57 -99 72q-15 3 -29 3q-48 0 -89 -32q-55 -43 -58 -106q-1 -7 0 -15q0 -57 41 -98l326 -336q54 -55 80 -127q21 -58 21 -119q0 -14 -1 -28q-12 -156 -139 -256q-95 -73 -212 -73q-36 0 -73 7 q-76 18 -137.5 61.5t-97.5 108.5q-16 25 -16 51q1 12 4 24z" />
<glyph unicode="T" horiz-adv-x="778" d="M25 1237q0 41 28.5 69.5t69.5 28.5h532q41 0 70 -28.5t29 -69.5t-29 -69.5t-70 -28.5h-168v-1082q0 -41 -28.5 -69.5t-69.5 -28.5t-69.5 28.5t-28.5 69.5v1082h-168q-41 0 -69.5 28.5t-28.5 69.5z" />
<glyph unicode="U" horiz-adv-x="868" d="M90 303v942q0 41 28.5 69.5t69.5 28.5t70 -28.5t29 -69.5v-942q0 -61 42.5 -104t104.5 -43q60 0 104 43t44 104v942q0 41 28.5 69.5t69.5 28.5t69.5 -28.5t28.5 -69.5v-942q0 -142 -101.5 -243t-242.5 -101q-142 0 -243 100.5t-101 243.5z" />
<glyph unicode="V" horiz-adv-x="917" d="M37 1219q-4 15 -4 29q1 25 13 47q20 34 60 44q13 4 27 4q23 0 47 -13q36 -20 47 -58q15 -54 42.5 -155.5t37.5 -137.5q93 -337 154 -553q80 297 151 553q10 36 37.5 137.5t42.5 155.5q10 38 46 58q24 13 48 13q13 0 27 -4q41 -11 61 -45q13 -22 13 -47q0 -14 -4 -28 l-328 -1188q-11 -32 -36.5 -52t-57.5 -20q-35 0 -60 19.5t-36 52.5z" />
<glyph unicode="W" horiz-adv-x="1429" d="M45 1223q-3 12 -3 24q0 25 14 49q22 34 61 45q13 3 26 3q27 0 49 -14q34 -20 44 -62q45 -194 63 -264q21 -85 65.5 -268.5t63.5 -258.5q78 331 127 527q18 70 63 264q7 35 34 55t63 20t61.5 -20t32.5 -55q45 -194 63 -264q21 -85 65.5 -268.5t63.5 -258.5q78 331 127 527 q29 113 64 264q10 42 44 62q23 14 49 14q13 0 26 -3q41 -11 61 -45q13 -22 14 -46q0 -13 -4 -27l-286 -1188q-7 -35 -33 -55.5t-62 -20.5t-62.5 20.5t-33.5 55.5q-45 194 -63 264q-74 297 -127 526q-72 -297 -129 -526q-29 -113 -64 -264q-7 -35 -33 -55.5t-61 -20.5 q-36 0 -62.5 20.5t-33.5 55.5z" />
<glyph unicode="X" horiz-adv-x="864" d="M32 26q-5 16 -6 31q0 22 11 43l285 572l-265 528q-11 22 -11 44q0 16 6 32q12 38 48 57q22 11 44 11q16 0 32 -6q38 -14 57 -50l199 -397l199 397q19 36 57 50q16 6 32 6q22 0 42 -11q36 -19 50 -57q6 -16 6 -32q0 -22 -11 -44l-264 -528l284 -572q11 -20 11 -42 q0 -16 -6 -32q-14 -38 -50 -57q-21 -11 -43 -11q-15 0 -31 6q-38 12 -57 48l-219 441l-219 -441q-19 -36 -57 -48q-16 -5 -32 -6q-22 0 -44 11q-36 19 -48 57z" />
<glyph unicode="Y" horiz-adv-x="823" d="M32 1276q13 38 50 57q20 11 42 11q16 0 32 -6q38 -13 57 -50l68 -135q62 -128 131 -262q21 42 66.5 132t64.5 130l67 135q19 37 58 50q15 6 31 6q22 0 42 -11q37 -19 51 -57q5 -16 5 -32q0 -22 -11 -44l-276 -551v-592q0 -41 -28.5 -69.5t-69.5 -28.5t-70 28.5t-29 69.5 v592l-276 551q-11 22 -11 44q0 16 6 32z" />
<glyph unicode="Z" horiz-adv-x="786" d="M49 66q0 25 8 38q33 82 183 437q229 541 252 598h-345q-41 0 -69.5 28.5t-28.5 69.5t28.5 69.5t69.5 28.5h492q52 0 82 -43q16 -29 16 -55t-8 -39q-104 -242 -184 -438q-57 -134 -148 -352.5t-102 -243.5h344q41 0 69.5 -28.5t28.5 -69.5t-28.5 -70t-69.5 -29h-492 q-51 0 -81 43q-17 31 -17 56z" />
<glyph unicode="[" horiz-adv-x="524" d="M106 -98v1499q0 41 29 69.5t70 28.5h205q41 0 69.5 -28.5t28.5 -69.5t-28.5 -69.5t-69.5 -28.5h-107v-1303h107q41 0 69.5 -28.5t28.5 -69.5t-28.5 -70t-69.5 -29h-205q-41 0 -70 29t-29 70z" />
<glyph unicode="\" d="M88 1294q-14 37 3.5 74.5t55.5 50.5q38 14 75 -3.5t50 -55.5l492 -1352q17 -38 -0.5 -74.5t-56.5 -50.5q-38 -14 -76 4t-51 56z" />
<glyph unicode="]" horiz-adv-x="524" d="M16 -98q0 41 29 69.5t70 28.5h106v1303h-106q-41 0 -70 28.5t-29 69.5t29 69.5t70 28.5h204q41 0 70 -28.5t29 -69.5v-1499q0 -41 -29 -70t-70 -29h-204q-41 0 -70 29t-29 70z" />
<glyph unicode="^" horiz-adv-x="1024" d="M91.5 870q-2.5 41 23.5 72l323 369q25 32 74 32t74 -32l323 -369q26 -31 23.5 -72t-33.5 -67q-31 -29 -70 -26t-69 34q-15 17 -45 52t-45 52q-19 22 -76.5 87t-81.5 94q-25 -27 -158 -181q-16 -17 -45.5 -52t-44.5 -52q-30 -31 -69 -34t-70 26q-31 26 -33.5 67z" />
<glyph unicode="_" horiz-adv-x="1024" d="M-98 -229q0 41 28.5 69.5t69.5 28.5h1024q41 0 69.5 -28.5t28.5 -69.5t-28.5 -70t-69.5 -29h-1024q-41 0 -69.5 29t-28.5 70z" />
<glyph unicode="`" horiz-adv-x="1024" d="M321.5 1281q-1.5 36 22.5 65q25 27 60 28.5t65 -22.5l205 -185q27 -25 28.5 -60t-22.5 -65q-25 -26 -61 -28.5t-62 22.5l-205 185q-29 24 -30.5 60z" />
<glyph unicode="a" horiz-adv-x="720" d="M31 270q0 123 87 210t210 87h112v109q0 33 -18.5 60.5t-48.5 39.5q-20 9 -41 9q-11 -1 -22 -3q-33 -6 -56 -30q-27 -27 -66 -27q-36 0 -63 27q-29 29 -29 65q0 37 29 66q63 63 149 81q29 6 57 6q56 0 111 -24q85 -35 134 -107t49 -163v-610q0 -38 -27.5 -65.5 t-65.5 -27.5h-204q-123 0 -210 87t-87 210zM215 270q0 -47 33 -79.5t80 -32.5h112v225h-112q-47 0 -80 -33t-33 -80z" />
<glyph unicode="b" horiz-adv-x="794" d="M113 66v1220q0 38 27 65t65 27t65 -27t27 -65v-325h113q123 0 210 -87t87 -210v-394q0 -123 -87 -210t-210 -87h-205q-38 0 -65 27.5t-27 65.5zM297 158h113q47 0 79.5 32.5t32.5 79.5v394q0 47 -32.5 79.5t-79.5 32.5h-113v-618z" />
<glyph unicode="c" horiz-adv-x="671" d="M88 262v410q0 92 48.5 165.5t133.5 108.5q58 24 116 24q28 0 58 -6q88 -17 150 -83q29 -29 29 -66q0 -34 -29 -63t-66 -29q-34 0 -63 29q-25 24 -59 30q-12 2 -22 3q-22 0 -42 -9q-32 -14 -51 -41.5t-19 -62.5v-410q0 -35 19 -62.5t51 -41.5q20 -9 42 -8q10 0 22 2 q34 6 59 30q29 29 63 29q37 0 66 -29t29 -65q0 -37 -29 -66q-63 -63 -150 -81q-29 -6 -58 -5l-116 23q-85 35 -133.5 108.5t-48.5 165.5z" />
<glyph unicode="d" horiz-adv-x="794" d="M88 270v394q0 123 87 210t210 87h113v325q0 38 27 65t65 27t65 -27t27 -65v-1220q0 -38 -27 -65.5t-65 -27.5h-205q-123 0 -210 87t-87 210zM272 270q0 -47 33 -79.5t80 -32.5h113v618h-113q-47 0 -80 -32.5t-33 -79.5v-394z" />
<glyph unicode="e" horiz-adv-x="753" d="M88 262v410q0 123 87 210t210 87t210 -87t87 -210v-205q0 -38 -27 -65t-65 -27h-318v-113q0 -35 19 -62.5t51 -41.5q25 -9 47 -9q42 0 76 33q29 29 63 29q39 0 68 -29q27 -27 27 -65q0 -39 -27 -66q-66 -63 -152 -81q-29 -6 -58 -5q-57 0 -114 23q-86 35 -135 108.5 t-49 165.5zM272 559h226v113q0 47 -33 79.5t-80 32.5t-80 -32.5t-33 -79.5v-113z" />
<glyph unicode="f" horiz-adv-x="606" d="M23 868q0 38 27 65.5t65 27.5h71v120q0 123 87 210t210 87q38 0 65 -27t27 -65t-27 -65t-65 -27q-47 0 -79.5 -33t-32.5 -80v-120h112q38 0 65 -27.5t27 -65.5t-27 -65t-65 -27h-112v-719q0 -38 -27 -65t-65 -27t-65.5 27t-27.5 65v719h-71q-38 0 -65 27t-27 65z" />
<glyph unicode="g" horiz-adv-x="786" d="M88 270v394q0 123 87 210t210 87h205q38 0 65 -27.5t27 -65.5v-1015q0 -92 -48.5 -166t-133.5 -109q-58 -23 -116 -23q-29 0 -58 5q-86 18 -150 82q-29 29 -29 65q0 37 29 66q28 28 64 28q37 0 65 -28q24 -24 59 -31q12 -2 23 -2q22 0 41 8q32 14 51 42t19 63v120h-113 q-123 0 -210 87t-87 210zM272 270q0 -47 33 -79.5t80 -32.5h113v618h-113q-47 0 -80 -32.5t-33 -79.5v-394z" />
<glyph unicode="h" horiz-adv-x="802" d="M113 57v1229q0 38 27 65t65 27t65 -27t27 -65v-325h113q123 0 210 -87t87 -210v-607q0 -38 -27.5 -65t-65.5 -27t-65 27t-27 65v607q0 47 -32.5 79.5t-79.5 32.5h-113v-719q0 -38 -27 -65t-65 -27t-65 27t-27 65z" />
<glyph unicode="i" horiz-adv-x="409" d="M92 1184q0 47 33 79.5t80 32.5t79.5 -32.5t32.5 -79.5t-32.5 -80t-79.5 -33t-80 33t-33 80zM113 57v820q0 38 27 65t65 27t65 -27t27 -65v-820q0 -38 -27 -65t-65 -27t-65 27t-27 65z" />
<glyph unicode="j" horiz-adv-x="425" d="M-76 -352q0 38 27 65t65 27q47 0 80 33t33 80v1024q0 38 27 65t65 27t65 -27t27 -65v-1024q0 -123 -87 -210t-210 -87q-38 0 -65 27t-27 65zM109 1184q0 47 32.5 79.5t79.5 32.5t80 -32.5t33 -79.5t-33 -80t-80 -33t-79.5 33t-32.5 80z" />
<glyph unicode="k" horiz-adv-x="778" d="M113 57v1229q0 38 27 65t65 27t65 -27t27 -65v-672l289 324q26 28 64 30q2 0 4 1q35 0 63 -25q31 -26 31 -67q0 -35 -25 -62l-236 -264l248 -449q12 -23 12 -46q1 -14 -3 -26q-10 -36 -46 -53q-21 -13 -45 -13q-13 0 -25 4q-38 10 -55 44l-215 394l-61 -68v-281 q0 -38 -27 -65t-65 -27t-65 27t-27 65z" />
<glyph unicode="l" horiz-adv-x="409" d="M106 199v1087q0 38 28 65t65 27q38 0 65 -27t27 -65v-1087q0 -41 37 -62q32 -21 42 -56q3 -11 4 -23q0 -24 -14 -48q-20 -32 -56 -42q-13 -3 -24 -3q-23 0 -44 12q-60 35 -95 95t-35 127z" />
<glyph unicode="m" horiz-adv-x="1212" d="M113 57v811q0 38 27 65.5t65 27.5h614q122 0 209.5 -87t87.5 -210v-607q0 -38 -27.5 -65t-64.5 -27q-38 0 -65 27t-27 65v607q0 47 -33 79.5t-80 32.5h-112v-719q0 -38 -28 -65t-65 -27q-38 0 -65 27t-27 65v719h-225v-719q0 -38 -27.5 -65t-64.5 -27q-38 0 -65 27 t-27 65z" />
<glyph unicode="n" horiz-adv-x="802" d="M113 57v811q0 38 27 65.5t65 27.5h205q123 0 210 -87t87 -210v-607q0 -38 -28 -65t-65 -27q-38 0 -65 27t-27 65v607q0 47 -32.5 79.5t-79.5 32.5h-113v-719q0 -38 -27.5 -65t-64.5 -27q-38 0 -65 27t-27 65z" />
<glyph unicode="o" horiz-adv-x="770" d="M88 262v410q0 123 87 210t210 87t210 -87t87 -210v-410q0 -123 -87 -210t-210 -87t-210 87t-87 210zM272 262q0 -47 33 -79.5t80 -32.5t80 32.5t33 79.5v410q0 47 -33 79.5t-80 32.5t-80 -32.5t-33 -79.5v-410z" />
<glyph unicode="p" horiz-adv-x="794" d="M113 -352v1220q0 38 27 65.5t65 27.5h205q123 0 210 -87t87 -210v-394q0 -123 -87 -210t-210 -87h-113v-325q0 -38 -27 -65t-65 -27t-65 27t-27 65zM297 158h113q47 0 79.5 32.5t32.5 79.5v394q0 47 -32.5 79.5t-79.5 32.5h-113v-618z" />
<glyph unicode="q" horiz-adv-x="794" d="M88 270v394q0 123 87 210t210 87h205q38 0 65 -27.5t27 -65.5v-1220q0 -38 -27 -65t-65 -27t-65 27t-27 65v325h-113q-123 0 -210 87t-87 210zM272 270q0 -47 33 -79.5t80 -32.5h113v618h-113q-47 0 -80 -32.5t-33 -79.5v-394z" />
<glyph unicode="r" horiz-adv-x="612" d="M113 57v811q0 38 27 65.5t65 27.5h205q79 0 147 -39q35 -20 45 -56q3 -12 3 -24q0 -24 -13 -47q-21 -33 -56 -43q-12 -3 -23 -3q-24 0 -48 13q-25 14 -55 14h-113v-719q0 -38 -27 -65t-65 -27t-65 27t-27 65z" />
<glyph unicode="s" horiz-adv-x="673" d="M69 178q10 36 42 55q23 13 47 13q12 0 24 -4q36 -10 56 -41q21 -43 71 -49q10 -2 19 -2q34 0 63 26q33 27 33 72v8q-3 52 -41 76l-193 133q-51 37 -81 91.5t-35 117.5q-1 11 -1 22q0 119 91 201q83 72 181 72q23 0 48 -4q62 -11 113.5 -46t83.5 -90q13 -21 13 -45 q1 -12 -3 -24q-10 -37 -45 -55q-21 -13 -45 -13q-12 0 -24 4q-37 10 -56 41q-20 39 -65 45q-9 2 -18 2q-30 0 -58 -24q-31 -25 -31 -67v-7q3 -42 39 -70l190 -133q112 -79 121 -215q1 -11 1 -22q0 -123 -93 -207q-82 -74 -186 -74q-24 0 -49 4q-136 22 -203 140 q-12 21 -12 44q0 12 3 25z" />
<glyph unicode="t" horiz-adv-x="606" d="M23 868q0 38 27 65.5t65 27.5h71v325q0 38 27.5 65t65.5 27t65 -27t27 -65v-325h112q38 0 65 -27.5t27 -65.5t-27 -65t-65 -27h-112v-514q0 -47 32.5 -79.5t79.5 -32.5q38 0 65 -27.5t27 -65.5t-27 -65t-65 -27q-123 0 -210 87t-87 210v514h-71q-38 0 -65 27t-27 65z" />
<glyph unicode="u" horiz-adv-x="802" d="M96 270v607q0 38 27 65t65 27t65.5 -27t27.5 -65v-607q0 -47 32.5 -79.5t79.5 -32.5h113v719q0 38 27 65t65 27t65 -27t27 -65v-811q0 -38 -27 -65.5t-65 -27.5h-205q-123 0 -210 87t-87 210z" />
<glyph unicode="v" horiz-adv-x="757" d="M45 850q-4 14 -4 28q0 22 11 43q18 34 54 44q14 4 28 4q22 0 43 -11q34 -18 44 -55q30 -104 51 -172q11 -37 48 -160t59 -192q22 68 58 190t48 162q42 139 52 172q9 37 43 55q21 11 43 11q14 0 28 -4q37 -10 55 -44q11 -21 11 -43q0 -14 -4 -28l-246 -819 q-7 -29 -32 -47.5t-56 -18.5q-30 0 -53.5 18t-34.5 48z" />
<glyph unicode="w" horiz-adv-x="1101" d="M51 854q-3 12 -3 24q0 23 12 45q20 33 57 44q12 3 23 3q24 0 46 -14q32 -20 43 -57q12 -54 37 -145q9 -36 35 -145t43 -173q17 65 44 174.5t36 143.5q25 91 37 145q7 31 32 50.5t56 19.5q32 0 57 -19.5t33 -50.5q12 -54 37 -145q9 -36 35 -145t43 -173q17 65 44 174.5 t36 143.5q20 72 36 145q11 38 43 58q21 13 44 13q12 0 24 -3q37 -11 57 -44q14 -22 14 -46q0 -11 -3 -23l-205 -819q-8 -31 -33 -50.5t-57 -19.5q-31 0 -56 19.5t-32 50.5q-12 54 -37 145q-8 32 -35.5 141.5t-44.5 174.5q-17 -64 -43 -172t-35 -144q-25 -91 -37 -145 q-8 -31 -33 -50.5t-57 -19.5q-31 0 -56 19.5t-32 50.5z" />
<glyph unicode="x" horiz-adv-x="737" d="M50 30q-4 13 -3 26q0 23 12 46l205 373l-196 356q-12 23 -12 46q0 13 3 25q10 36 45 54q21 12 43 12q13 0 26 -4q37 -10 56 -42l140 -256l141 256q18 32 54 42q12 3 25 4q23 0 46 -12q35 -18 45 -54q4 -13 4 -26q0 -23 -12 -45l-197 -356l205 -373q12 -23 12 -46 q0 -14 -4 -26q-10 -36 -45 -53q-23 -13 -47 -13q-12 0 -24 4q-36 10 -54 44l-149 271l-148 -271q-17 -34 -55 -44q-12 -3 -25 -4q-24 0 -45 13q-36 17 -46 53z" />
<glyph unicode="y" horiz-adv-x="755" d="M10 -352q0 38 27 65t65 27t68 22.5t41 57.5l70 237l-238 793q-4 14 -4 27q0 23 11 44q19 34 56 44q13 4 26 4q22 0 43 -11q34 -18 46 -55l156 -524l158 524q10 36 44 55q21 11 43 11q14 0 27 -4q37 -11 55 -45q13 -21 13 -44q0 -13 -4 -26l-248 -819l-78 -264 q-27 -95 -106 -152q-83 -59 -179 -59q-38 0 -65 27t-27 65z" />
<glyph unicode="z" horiz-adv-x="704" d="M55 66q0 27 8 40q26 50 72 139.5t64 125.5q151 299 207 405h-259q-38 0 -65 27t-27 65t27 65.5t65 27.5h410q51 0 78 -46q14 -22 14 -47q0 -16 -10 -43q-71 -138 -135 -264q-44 -81 -117 -226t-90 -177h260q37 0 64.5 -27t27.5 -65t-27.5 -65.5t-64.5 -27.5h-410 q-52 0 -79 43q-13 26 -13 50z" />
<glyph unicode="{" horiz-adv-x="524" d="M0 672q0 41 28.5 69.5t69.5 28.5q29 0 47.5 18.5t18.5 47.5v409q0 109 76.5 185.5t185.5 76.5q41 0 69.5 -28.5t28.5 -69.5t-28.5 -69.5t-69.5 -28.5q-29 0 -47.5 -18.5t-18.5 -47.5v-409q0 -87 -57 -164q57 -77 57 -164v-451q0 -29 18.5 -47t47.5 -18q41 0 69.5 -28.5 t28.5 -69.5t-28.5 -70t-69.5 -29q-109 0 -185.5 76.5t-76.5 185.5v451q0 29 -18.5 47t-47.5 18q-41 0 -69.5 29t-28.5 70z" />
<glyph unicode="|" horiz-adv-x="425" d="M125 -352v2048q0 41 28.5 69.5t69.5 28.5t70 -28.5t29 -69.5v-2048q0 -41 -29 -70t-70 -29t-69.5 29t-28.5 70z" />
<glyph unicode="}" horiz-adv-x="524" d="M0 -106q0 41 28.5 69.5t69.5 28.5q27 0 46.5 18.5t19.5 46.5v451q0 95 57 164q-57 69 -57 164v409q0 29 -19.5 47.5t-46.5 18.5q-41 0 -69.5 28.5t-28.5 69.5t28.5 69.5t69.5 28.5q108 0 185 -77t77 -185v-409q0 -29 18.5 -47.5t47.5 -18.5q41 0 69.5 -28.5t28.5 -69.5 t-28.5 -70t-69.5 -29q-29 0 -47.5 -18t-18.5 -47v-451q0 -108 -77 -185t-185 -77q-41 0 -69.5 29t-28.5 70z" />
<glyph unicode="~" d="M59 478q-7 37 13 69q68 99 184 121q121 18 215 -52l25 -18q32 -25 69 -16q43 6 60 39q24 33 61 41t70 -15q31 -24 39 -61t-15 -68q-64 -99 -184 -121q-114 -22 -213 52l-25 18q-35 21 -69 16q-42 -6 -62 -39q-24 -33 -60 -41t-69 15q-32 23 -39 60z" />
<glyph unicode="&#xa1;" horiz-adv-x="409" d="M86 856q0 50 35 84.5t84 34.5t84 -34.5t35 -84.5t-35 -84.5t-84 -34.5t-84 34.5t-35 84.5zM106 -270v819q0 41 29 69.5t70 28.5t69.5 -28.5t28.5 -69.5v-819q0 -41 -28.5 -70t-69.5 -29t-70 29t-29 70z" />
<glyph unicode="&#xa2;" d="M152 262v410q0 93 50 169t136 111l18 6v82q0 41 29 70t70 29t69.5 -29t28.5 -70v-82q65 -21 115 -71q28 -28 28 -70q0 -41 -28 -69q-29 -29 -70 -29t-70 29q-27 30 -73 30h-2q-26 0 -39 -8q-30 -12 -48 -38.5t-18 -59.5v-410q0 -33 18 -59.5t48 -38.5q13 -8 39 -8h2 q46 0 73 30q29 29 70 29t70 -29q28 -28 28 -69q0 -42 -28 -70q-51 -51 -115 -72v-81q0 -41 -28.5 -70t-69.5 -29t-70 29t-29 70v81l-18 7q-86 35 -136 111t-50 169z" />
<glyph unicode="&#xa3;" d="M41 672q0 41 28.5 69.5t69.5 28.5h66v270q0 104 62.5 185.5t162.5 107.5t194.5 -12.5t145.5 -128.5q22 -36 11.5 -73.5t-46.5 -61.5q-35 -20 -73.5 -9.5t-61.5 46.5q-17 31 -50.5 45t-68.5 4q-35 -11 -57.5 -39.5t-22.5 -63.5v-270h148q41 0 69.5 -28.5t28.5 -69.5 t-28.5 -70t-69.5 -29h-148v-276q0 -77 -26 -133h338q41 0 69.5 -28.5t28.5 -69.5t-28.5 -70t-69.5 -29h-574q-35 0 -62.5 23.5t-33.5 58.5q-6 36 11 66.5t52 42.5q45 17 72 54.5t27 84.5v276h-66q-41 0 -69.5 29t-28.5 70z" />
<glyph unicode="&#xa4;" d="M39 381q0 41 29 70l55 57q-41 77 -41 164t41 164l-55 55q-29 29 -29 70q0 40 29 69t69 29q41 0 70 -29l55 -55q77 41 164 41t164 -41l55 55q29 29 70 29q40 0 69 -29t29 -69q0 -41 -29 -70l-55 -55q41 -77 41 -164t-41 -164l55 -57q29 -29 29 -70q0 -39 -29 -68 q-28 -28 -69 -28q-42 0 -70 28l-55 56q-77 -41 -164 -41t-164 41l-55 -56q-28 -28 -70 -28q-41 0 -69 28q-29 29 -29 68zM279 672q0 -62 43 -105t104 -43t104 43t43 105t-42.5 104.5t-104.5 42.5t-104.5 -42.5t-42.5 -104.5z" />
<glyph unicode="&#xa5;" d="M45.5 1275.5q12.5 38.5 48.5 57.5q37 19 75.5 5.5t57.5 -50.5l68 -135q62 -128 131 -262q21 42 66.5 132t64.5 130l68 135q19 37 57.5 50.5t73.5 -5.5q37 -19 50.5 -57.5t-5.5 -75.5l-215 -430h94q41 0 69.5 -28.5t28.5 -69.5t-28.5 -70t-69.5 -29h-156v-131h156 q41 0 69.5 -28.5t28.5 -69.5t-28.5 -69.5t-69.5 -28.5h-156v-189q0 -41 -28.5 -69.5t-69.5 -28.5t-69.5 28.5t-28.5 69.5v189h-140q-41 0 -69.5 28.5t-28.5 69.5t28.5 69.5t69.5 28.5h140v131h-140q-41 0 -69.5 29t-28.5 70t28.5 69.5t69.5 28.5h78l-215 430 q-18 37 -5.5 75.5z" />
<glyph unicode="&#xa6;" horiz-adv-x="425" d="M115 -352v819q0 41 28.5 69.5t69.5 28.5t69.5 -28.5t28.5 -69.5v-819q0 -41 -28.5 -70t-69.5 -29t-69.5 29t-28.5 70zM115 877v819q0 41 28.5 69.5t69.5 28.5t69.5 -28.5t28.5 -69.5v-819q0 -41 -28.5 -70t-69.5 -29t-69.5 29t-28.5 70z" />
<glyph unicode="&#xa7;" d="M137 764q14 79 68 139q-46 64 -49 152q0 133 98 219q104 87 233 65q62 -11 113.5 -46.5t83.5 -90.5q20 -35 9.5 -73.5t-46.5 -61.5q-35 -20 -74 -9t-59 46q-21 36 -61 41q-9 6 -30 1.5t-40 -20.5q-31 -26 -31 -67q6 -43 33 -66l229 -182q63 -51 91.5 -123.5t11.5 -148.5 q-15 -81 -68 -140q47 -71 47 -151q3 -135 -96 -221q-101 -85 -233 -64q-62 11 -113.5 46.5t-83.5 90.5q-20 35 -9.5 74t46.5 62q35 20 74 9t59 -46q21 -36 59 -41q35 -13 72 18q34 29 29 68q0 39 -31 65l-229 183q-64 50 -92 122.5t-11 149.5zM330 729q-9 -51 30 -84 l144 -113q13 13 20 41q9 51 -30 84l-144 113q-13 -13 -20 -41z" />
<glyph unicode="&#xa8;" horiz-adv-x="1024" d="M236 1184q0 47 32.5 79.5t79.5 32.5t80 -32.5t33 -79.5t-33 -80t-80 -33t-79.5 33t-32.5 80zM563 1184q0 47 33 79.5t80 32.5t79.5 -32.5t32.5 -79.5t-32.5 -80t-79.5 -33t-80 33t-33 80z" />
<glyph unicode="&#xa9;" horiz-adv-x="1470" d="M49 651q0 285 201 486q98 98 223 149t262 51q288 0 488 -200t200 -486q0 -285 -200 -485q-99 -99 -224 -151t-264 -52q-136 0 -261.5 52.5t-223.5 150.5q-201 201 -201 485zM236 651q0 -207 147 -354t352 -147q208 0 355 147t147 354q0 208 -147 355q-145 145 -355 145 q-207 0 -352 -145q-147 -147 -147 -355zM479 508v287q0 88 52.5 156t138.5 91t165.5 -10t122.5 -108q20 -35 10.5 -71.5t-44.5 -55.5q-32 -21 -69.5 -12t-57.5 44q-10 22 -32 30.5t-46 2.5q-53 -15 -53 -67v-287q0 -25 14 -43.5t39 -24.5q24 -6 46 2.5t32 30.5 q21 33 57.5 43t69.5 -10q35 -19 44.5 -55.5t-10.5 -71.5q-43 -75 -122.5 -108.5t-165.5 -10.5t-138.5 91.5t-52.5 156.5z" />
<glyph unicode="&#xaa;" horiz-adv-x="624" d="M82 815q0 94 68.5 163t162.5 69h56v55q0 19 -11 34t-30 19q-42 9 -62 -27q-19 -31 -54.5 -40t-66.5 8q-32 19 -41.5 55t9.5 68q39 68 112.5 98.5t147.5 7.5q77 -20 124.5 -82t47.5 -141v-430q0 -37 -25.5 -62.5t-62.5 -25.5h-144q-94 0 -162.5 68.5t-68.5 162.5zM258 815 q0 -23 16 -39t39 -16h56v110h-56q-23 0 -39 -16t-16 -39z" />
<glyph unicode="&#xab;" horiz-adv-x="858" d="M78 549q-27 47 0 96l131 238q20 36 59 47.5t76 -8.5q49 -27 49 -86q0 -27 -12 -48q-7 -12 -20.5 -36t-20.5 -37q-45 -81 -64 -117q19 -40 70 -127q32 -57 43 -80q12 -21 12 -47q0 -59 -49 -86q-37 -20 -76 -8.5t-59 47.5zM446 549q-27 47 0 96l132 238q20 36 59 47.5 t76 -8.5q49 -27 49 -86q0 -27 -12 -48q-7 -12 -20.5 -36t-20.5 -37q-45 -81 -64 -117q19 -40 70 -127q32 -57 43 -80q12 -21 12 -47q0 -59 -49 -86q-37 -20 -76 -8.5t-59 47.5z" />
<glyph unicode="&#xac;" d="M82 590q0 41 28.5 69.5t69.5 28.5h492q41 0 69.5 -28.5t28.5 -69.5v-246q0 -41 -28.5 -69.5t-69.5 -28.5t-70 28.5t-29 69.5v148h-393q-41 0 -69.5 28.5t-28.5 69.5z" />
<glyph unicode="&#xad;" d="M82 590q0 41 28.5 69.5t69.5 28.5h492q41 0 69.5 -28.5t28.5 -69.5t-28.5 -69.5t-69.5 -28.5h-492q-41 0 -69.5 28.5t-28.5 69.5z" />
<glyph unicode="&#xae;" horiz-adv-x="1470" d="M49 651q0 285 201 486q98 98 223 149t262 51q288 0 488 -200t200 -486q0 -285 -200 -485q-99 -99 -224 -151t-264 -52q-136 0 -261.5 52.5t-223.5 150.5q-201 201 -201 485zM236 651q0 -207 147 -354t352 -147q208 0 355 147t147 354q0 208 -147 355q-145 145 -355 145 q-207 0 -352 -145q-147 -147 -147 -355zM500 344v606q0 38 27 65t65 27h164q106 0 182 -76t76 -180q0 -67 -31 -123t-86 -92l104 -180q19 -35 10 -72t-44 -57q-35 -18 -71.5 -8t-55.5 43l-133 231h-21v-184q0 -39 -26.5 -66.5t-67.5 -27.5q-38 0 -65 28t-27 66zM686 715h70 q29 0 50 21t21 50t-21 49.5t-50 20.5h-70v-141z" />
<glyph unicode="&#xaf;" horiz-adv-x="1024" d="M-98 1532q0 41 28.5 69.5t69.5 28.5h1024q41 0 69.5 -28.5t28.5 -69.5t-28.5 -69.5t-69.5 -28.5h-1024q-41 0 -69.5 28.5t-28.5 69.5z" />
<glyph unicode="&#xb0;" horiz-adv-x="641" d="M49 1061q0 113 79.5 192.5t193.5 79.5q112 0 192 -79.5t80 -192.5q0 -114 -79.5 -193.5t-192.5 -79.5q-114 0 -193.5 79.5t-79.5 193.5zM225 1061q0 -41 28 -68.5t69 -27.5t68.5 27.5t27.5 68.5t-27.5 68.5t-68.5 27.5t-69 -27.5t-28 -68.5z" />
<glyph unicode="&#xb1;" d="M82 66q0 41 28.5 69.5t69.5 28.5h492q41 0 69.5 -28.5t28.5 -69.5t-28.5 -70t-69.5 -29h-492q-41 0 -69.5 29t-28.5 70zM82 590q0 41 28.5 69.5t69.5 28.5h148v148q0 41 28.5 69.5t69.5 28.5t69.5 -28.5t28.5 -69.5v-148h148q41 0 69.5 -28.5t28.5 -69.5t-28.5 -69.5 t-69.5 -28.5h-148v-148q0 -41 -28.5 -69.5t-69.5 -28.5t-69.5 28.5t-28.5 69.5v148h-148q-41 0 -69.5 28.5t-28.5 69.5z" />
<glyph unicode="&#xb2;" horiz-adv-x="608" d="M82 641q0 25 14 45l246 387q12 22 6 41q-7 23 -24 35q-18 12 -43 6q-24 -6 -33 -27q-19 -31 -54.5 -40t-66.5 8q-32 19 -42 55t9 68q47 83 144 108q97 22 178 -27q84 -53 104 -145q22 -99 -28 -178q0 1 -25 -37t-64 -99.5t-71 -113.5h106q37 0 62.5 -25.5t25.5 -62.5 t-25.5 -62.5t-62.5 -25.5h-268q-52 0 -78 45q-10 23 -10 45z" />
<glyph unicode="&#xb3;" horiz-adv-x="606" d="M83 724q10 35 42 54q31 19 66.5 10t54.5 -40q20 -36 61 -27q19 4 30 19t11 34v41q0 23 -16 39t-39 16q-37 0 -62.5 25.5t-25.5 62.5t25.5 63t62.5 26q31 0 47 28q15 27 0 53q-16 29 -47 29t-47 -29q-19 -31 -54.5 -40t-66.5 8q-32 19 -42 55t9 68q30 53 84.5 83.5 t116.5 30.5t116.5 -30.5t84.5 -83.5t30 -117t-30 -117q-3 -4 -9.5 -13.5t-9.5 -13.5q49 -61 49 -143v-41q0 -79 -47.5 -141t-124.5 -82q-74 -23 -147.5 7.5t-112.5 98.5q-19 32 -9 67z" />
<glyph unicode="&#xb4;" horiz-adv-x="1024" d="M322 1107q1 36 30 60l205 185q26 25 62 22.5t61 -28.5q25 -29 24 -65t-30 -60l-205 -185q-26 -25 -63 -22.5t-60 28.5q-25 29 -24 65z" />
<glyph unicode="&#xb5;" horiz-adv-x="819" d="M113 -352v1229q0 38 27 65t65 27t65 -27t27 -65v-615q0 -47 33 -79.5t80 -32.5t79.5 32.5t32.5 79.5v615q0 38 27 65t65 27t65.5 -27t27.5 -65v-820q0 -38 -27.5 -65t-65.5 -27q-43 0 -69 33q-62 -33 -135 -33q-52 0 -113 23v-340q0 -38 -27 -65t-65 -27t-65 27t-27 65z " />
<glyph unicode="&#xb6;" horiz-adv-x="983" d="M39 991q0 139 99.5 238.5t238.5 99.5h512q38 0 66 -27t28 -65t-28 -66t-66 -28h-49v-1249q0 -38 -28.5 -66.5t-66.5 -28.5t-65 28t-27 67v1249h-100v-1249q0 -38 -28 -66.5t-66 -28.5t-65 28t-27 67v759q-137 5 -232.5 102.5t-95.5 235.5zM225 991q0 -60 41 -103t101 -48 v303q-60 -5 -101 -48.5t-41 -103.5z" />
<glyph unicode="&#xb7;" horiz-adv-x="393" d="M78 795q0 49 34.5 83.5t84.5 34.5q49 0 83.5 -34.5t34.5 -83.5q0 -50 -34.5 -84.5t-83.5 -34.5t-84 35t-35 84z" />
<glyph unicode="&#xb8;" horiz-adv-x="1024" d="M338 -185q11 39 47 60q33 20 33 57v125q0 41 28.5 70t69.5 29t69.5 -29t28.5 -70v-125q0 -72 -34.5 -132t-96.5 -95q-35 -20 -74 -10t-59 45q-23 36 -12 75z" />
<glyph unicode="&#xb9;" horiz-adv-x="479" d="M25 1063q0 37 26 63l180 183q43 40 99 18q24 -10 38.5 -32.5t14.5 -49.5v-614q0 -37 -25.5 -62.5t-62.5 -25.5t-62.5 25.5t-25.5 62.5v401l-19 -18l-12 -13q-26 -26 -63 -26q-39 0 -62 26q-26 23 -26 62z" />
<glyph unicode="&#xba;" horiz-adv-x="624" d="M82 815v287q0 94 68.5 162.5t162.5 68.5t163 -68.5t69 -162.5v-287q0 -94 -69 -162.5t-163 -68.5t-162.5 68.5t-68.5 162.5zM258 815q0 -23 16 -39t39 -16t39.5 16t16.5 39v287q0 23 -16.5 39t-39.5 16t-39 -16t-16 -39v-287z" />
<glyph unicode="&#xbb;" horiz-adv-x="858" d="M88 344q0 26 12 47q8 17 26.5 48t18.5 32q12 20 70 127q-10 17 -33 59.5t-32 57.5q-7 12 -20.5 36.5t-20.5 36.5q-13 23 -13 48q0 60 51 86q35 20 75 8t59 -47l131 -238q27 -49 0 -96l-140 -252q-19 -35 -58.5 -47t-74.5 8q-51 26 -51 86zM457 344q0 26 12 47 q8 17 26.5 48t18.5 32q12 20 70 127q-11 19 -66 117q-7 12 -20.5 36.5t-20.5 36.5q-12 21 -12 48q0 60 51 86q35 20 74.5 8t58.5 -47l131 -238q27 -49 0 -96l-139 -252q-19 -35 -58.5 -47t-74.5 8q-51 26 -51 86z" />
<glyph unicode="&#xbc;" horiz-adv-x="1224" d="M25 1063q0 37 26 63l180 183q43 40 99 18q24 -10 38.5 -32.5t14.5 -49.5v-614q0 -37 -25.5 -62.5t-62.5 -25.5t-62.5 25.5t-25.5 62.5v401l-19 -18l-12 -13q-26 -26 -63 -26q-39 0 -62 26q-26 23 -26 62zM201.5 24.5q-13.5 38.5 5.5 75.5l573 1188q17 37 55.5 50.5 t75.5 -5.5q37 -17 50.5 -55.5t-5.5 -75.5l-573 -1188q-17 -37 -55.5 -50.5t-75.5 5.5q-37 17 -50.5 55.5zM645 254l182 451q13 35 46 49t69 0q26 -10 40.5 -32.5t14.5 -49.5q0 -18 -6 -33q-40 -97 -47 -117q-14 -33 -43.5 -106.5t-42.5 -106.5h45v35q0 37 25.5 62.5 t62.5 25.5t62.5 -25.5t25.5 -62.5v-35h19q37 0 62.5 -25.5t25.5 -62.5t-25.5 -62.5t-62.5 -25.5h-19v-76q0 -37 -25.5 -62.5t-62.5 -25.5t-62.5 25.5t-25.5 62.5v76h-176q-48 0 -74 39q-27 40 -8 82z" />
<glyph unicode="&#xbd;" horiz-adv-x="1220" d="M25 1063q0 37 26 63l180 183q43 40 99 18q24 -10 38.5 -32.5t14.5 -49.5v-614q0 -37 -25.5 -62.5t-62.5 -25.5t-62.5 25.5t-25.5 62.5v401l-19 -18l-12 -13q-26 -26 -63 -26q-39 0 -62 26q-26 23 -26 62zM201.5 24.5q-13.5 38.5 5.5 75.5l573 1188q17 37 55.5 50.5 t75.5 -5.5q37 -17 50.5 -55.5t-5.5 -75.5l-573 -1188q-17 -37 -55.5 -50.5t-75.5 5.5q-37 17 -50.5 55.5zM737 68q0 24 15 45l245 387q13 23 7 41q-6 21 -25 34t-43 7t-33 -27q-19 -31 -54.5 -40.5t-66.5 7.5q-32 19 -41.5 55t9.5 68q48 85 143 109q97 22 178 -27 q85 -54 105 -145q22 -99 -29 -179q0 1 -24.5 -36.5t-64 -99t-71.5 -113.5h107q37 0 62.5 -25.5t25.5 -62.5t-25.5 -63t-62.5 -26h-269q-50 0 -77 46q-11 26 -11 45z" />
<glyph unicode="&#xbe;" horiz-adv-x="1286" d="M44 724q10 35 42 54q31 19 66.5 10t54.5 -40q20 -36 61 -27q19 4 30 19t11 34v41q0 23 -16 39t-39 16q-37 0 -62.5 25.5t-25.5 62.5t25.5 63t62.5 26q31 0 47 28q15 27 0 53q-16 29 -47 29t-47 -29q-19 -31 -54.5 -40t-66.5 8q-32 19 -42 55t9 68q30 53 84.5 83.5 t116.5 30.5t116.5 -30.5t84.5 -83.5t30 -117t-30 -117q-3 -4 -9.5 -13.5t-9.5 -13.5q49 -61 49 -143v-41q0 -79 -47.5 -141t-124.5 -82q-74 -23 -147.5 7.5t-112.5 98.5q-19 32 -9 67zM262.5 24.5q-13.5 38.5 5.5 75.5l574 1188q17 37 55.5 50.5t75.5 -5.5 q37 -17 50.5 -55.5t-5.5 -75.5l-574 -1188q-17 -37 -55.5 -50.5t-75.5 5.5q-37 17 -50.5 55.5zM707 254l182 451q13 35 46 49t69 0q26 -10 40.5 -32.5t14.5 -49.5q0 -18 -6 -33q-40 -97 -47 -117q-13 -33 -42.5 -106.5t-43.5 -106.5h45v35q0 37 25.5 62.5t62.5 25.5 t62.5 -25.5t25.5 -62.5v-35h18q37 0 62.5 -25.5t25.5 -62.5t-25.5 -62.5t-62.5 -25.5h-18v-76q0 -37 -25.5 -62.5t-62.5 -25.5t-62.5 25.5t-25.5 62.5v76h-177q-47 0 -73 39q-27 40 -8 82z" />
<glyph unicode="&#xbf;" horiz-adv-x="731" d="M51 -90q-6 74 19.5 143t79.5 123l104 105q41 47 41 104v164q0 41 28.5 69.5t69.5 28.5t70 -28.5t29 -69.5v-164q0 -140 -99 -242l-104 -104q-46 -46 -43 -115q6 -68 59 -106q53 -41 117 -29q61 11 100 72q20 35 59 46t74 -9q36 -23 46.5 -62t-9.5 -74q-71 -127 -231 -165 q-72 -14 -144.5 2.5t-132.5 60.5q-124 97 -133 250zM274 856q0 50 35 84.5t84 34.5t84 -34.5t35 -84.5t-35 -84.5t-84 -34.5t-84 34.5t-35 84.5z" />
<glyph unicode="&#xc0;" horiz-adv-x="884" d="M20 84l328 1188q8 32 33.5 51.5t60.5 19.5t61.5 -19.5t33.5 -51.5l327 -1188q10 -41 -9.5 -75.5t-57.5 -45.5q-41 -10 -75.5 9.5t-45.5 58.5q-5 14 -17 59q-4 16 -19 68.5t-24 87.5h-348q-29 -102 -43 -156t-16 -59q-11 -39 -45.5 -58.5t-75.5 -9.5q-39 11 -58.5 45.5 t-9.5 75.5zM245.5 1690q-1.5 38 24.5 67t64 31.5t67 -23.5l205 -184q29 -26 31.5 -64t-23.5 -67t-65 -31.5t-68 23.5l-205 184q-29 26 -30.5 64zM324 442h237q-6 20 -51 186.5t-68 245.5q-23 -77 -65 -234.5t-53 -197.5z" />
<glyph unicode="&#xc1;" horiz-adv-x="884" d="M20 84l328 1188q8 32 33.5 51.5t60.5 19.5t61.5 -19.5t33.5 -51.5l327 -1188q10 -41 -9.5 -75.5t-57.5 -45.5q-41 -10 -75.5 9.5t-45.5 58.5q-5 14 -17 59q-4 16 -19 68.5t-24 87.5h-348q-29 -102 -43 -156t-16 -59q-11 -39 -45.5 -58.5t-75.5 -9.5q-39 11 -58.5 45.5 t-9.5 75.5zM247 1517q3 38 32 64l204 184q29 26 67 23.5t64 -31.5t23.5 -67t-31.5 -64l-205 -184q-29 -26 -67 -23.5t-64 31.5t-23 67zM324 442h237q-6 20 -51 186.5t-68 245.5q-23 -77 -65 -234.5t-53 -197.5z" />
<glyph unicode="&#xc2;" horiz-adv-x="884" d="M20 84l328 1188q8 32 33.5 51.5t60.5 19.5t61.5 -19.5t33.5 -51.5l327 -1188q10 -41 -9.5 -75.5t-57.5 -45.5q-41 -10 -75.5 9.5t-45.5 58.5q-5 14 -17 59q-4 16 -19 68.5t-24 87.5h-348q-29 -102 -43 -156t-16 -59q-11 -39 -45.5 -58.5t-75.5 -9.5q-39 11 -58.5 45.5 t-9.5 75.5zM170 1521.5q5 36.5 35 59.5l184 143q22 19 53 19t56 -19l184 -143q29 -23 33 -59.5t-19 -65.5t-58.5 -33t-64.5 19q-25 18 -45 35q-13 11 -43 32t-43 33q-12 -10 -41.5 -31.5t-42.5 -33.5q-20 -17 -45 -35q-29 -23 -65.5 -19t-59.5 33t-18 65.5zM324 442h237 q-6 20 -51 186.5t-68 245.5q-23 -77 -65 -234.5t-53 -197.5z" />
<glyph unicode="&#xc3;" horiz-adv-x="884" d="M20 84l328 1188q8 32 33.5 51.5t60.5 19.5t61.5 -19.5t33.5 -51.5l327 -1188q10 -41 -9.5 -75.5t-57.5 -45.5q-41 -10 -75.5 9.5t-45.5 58.5q-5 14 -17 59q-4 16 -19 68.5t-24 87.5h-348q-29 -102 -43 -156t-16 -59q-11 -39 -45.5 -58.5t-75.5 -9.5q-39 11 -58.5 45.5 t-9.5 75.5zM171.5 1551.5q-7.5 35.5 12.5 66.5q53 77 142 92q92 16 161 -39l17 -12q10 -8 26 -8q19 6 23 16q20 31 56 38t67 -13q31 -21 39 -56.5t-15 -66.5q-48 -76 -139 -92q-92 -16 -164 39l-16 12q-12 9 -27 6q-11 0 -22 -14q-20 -31 -56 -38t-67 13q-30 21 -37.5 56.5z M324 442h237q-6 20 -51 186.5t-68 245.5q-23 -77 -65 -234.5t-53 -197.5z" />
<glyph unicode="&#xc4;" horiz-adv-x="884" d="M20 84l328 1188q8 32 33.5 51.5t60.5 19.5t61.5 -19.5t33.5 -51.5l327 -1188q10 -41 -9.5 -75.5t-57.5 -45.5q-41 -10 -75.5 9.5t-45.5 58.5q-5 14 -17 59q-4 16 -19 68.5t-24 87.5h-348q-29 -102 -43 -156t-16 -59q-11 -39 -45.5 -58.5t-75.5 -9.5q-39 11 -58.5 45.5 t-9.5 75.5zM160 1593q0 49 35 84t84 35t83.5 -34.5t34.5 -84.5q0 -49 -34.5 -83.5t-83.5 -34.5q-50 0 -84.5 34.5t-34.5 83.5zM324 442h237q-6 20 -51 186.5t-68 245.5q-23 -77 -65 -234.5t-53 -197.5zM487 1593q0 49 34.5 84t84.5 35t84.5 -35t34.5 -84t-34.5 -83.5 t-84.5 -34.5t-84.5 34.5t-34.5 83.5z" />
<glyph unicode="&#xc5;" horiz-adv-x="884" d="M20 84l328 1188q8 32 33.5 51.5t60.5 19.5t61.5 -19.5t33.5 -51.5l327 -1188q10 -41 -9.5 -75.5t-57.5 -45.5q-41 -10 -75.5 9.5t-45.5 58.5q-5 14 -17 59q-4 16 -19 68.5t-24 87.5h-348q-29 -102 -43 -156t-16 -59q-11 -39 -45.5 -58.5t-75.5 -9.5q-39 11 -58.5 45.5 t-9.5 75.5zM242 1614q0 85 57.5 143t142.5 58q86 0 144.5 -58t58.5 -143q0 -83 -59 -143t-144 -60q-83 0 -141.5 60.5t-58.5 142.5zM324 442h237q-6 20 -51 186.5t-68 245.5q-23 -77 -65 -234.5t-53 -197.5zM399 1614q0 -19 13 -32t30 -13q19 0 32 13t13 32t-13 31t-32 12 q-18 0 -30.5 -12.5t-12.5 -30.5z" />
<glyph unicode="&#xc6;" horiz-adv-x="1263" d="M7.5 22q-14.5 38 2.5 76l529 1180q10 26 35 41.5t55 15.5h493q41 0 70 -28.5t29 -69.5t-29 -69.5t-70 -28.5h-311v-369h270q41 0 70 -28.5t29 -69.5t-29 -70t-70 -29h-270v-409h311q41 0 70 -28.5t29 -69.5t-29 -70t-70 -29h-409q-41 0 -70 29t-29 70v180h-323 q-30 -67 -74 -166q-6 -15 -17 -38t-12 -26q-17 -37 -54.5 -51.5t-74.5 2.5t-51.5 55zM379 442h235v527q-12 -27 -99.5 -223.5t-135.5 -303.5z" />
<glyph unicode="&#xc7;" horiz-adv-x="806" d="M82 303v696q0 117 71 210t183 122q113 30 221 -14t166 -146l20 -34q20 -35 9.5 -75.5t-45.5 -60.5t-74.5 -9t-59.5 46l-20 35q-25 43 -72 62t-94 6q-49 -12 -78.5 -52t-29.5 -90v-696q0 -51 29.5 -90.5t78.5 -52.5q48 -12 94.5 7.5t71.5 61.5l20 35q20 35 59.5 46 t74.5 -9t45.5 -60t-9.5 -75l-20 -35q-70 -119 -199 -158v-45q0 -71 -35.5 -131t-97.5 -96q-35 -20 -74 -10t-59 45t-9 75t46 60q33 26 33 57v45q-110 32 -178 123t-68 207z" />
<glyph unicode="&#xc8;" horiz-adv-x="753" d="M106 66v1171q0 41 29 69.5t70 28.5h409q41 0 70 -28.5t29 -69.5t-29 -69.5t-70 -28.5h-311v-369h270q41 0 70 -28.5t29 -69.5t-29 -70t-70 -29h-270v-409h311q41 0 70 -28.5t29 -69.5t-29 -70t-70 -29h-409q-41 0 -70 29t-29 70zM213.5 1690q-1.5 38 24.5 67t64 31.5 t67 -23.5l204 -184q29 -26 31 -64t-24 -67q-25 -29 -63.5 -31.5t-67.5 23.5l-205 184q-29 26 -30.5 64z" />
<glyph unicode="&#xc9;" horiz-adv-x="753" d="M106 66v1171q0 41 29 69.5t70 28.5h409q41 0 70 -28.5t29 -69.5t-29 -69.5t-70 -28.5h-311v-369h270q41 0 70 -28.5t29 -69.5t-29 -70t-70 -29h-270v-409h311q41 0 70 -28.5t29 -69.5t-29 -70t-70 -29h-409q-41 0 -70 29t-29 70zM213.5 1517q1.5 38 30.5 64l205 184 q29 26 67.5 23.5t63.5 -31.5q26 -29 24 -67t-31 -64l-204 -184q-29 -26 -67 -23.5t-64 31.5t-24.5 67z" />
<glyph unicode="&#xca;" horiz-adv-x="753" d="M106 66v1171q0 41 29 69.5t70 28.5h409q41 0 70 -28.5t29 -69.5t-29 -69.5t-70 -28.5h-311v-369h270q41 0 70 -28.5t29 -69.5t-29 -70t-70 -29h-270v-409h311q41 0 70 -28.5t29 -69.5t-29 -70t-70 -29h-409q-41 0 -70 29t-29 70zM137 1521.5q4 36.5 33 59.5l184 143 q25 19 56 19t53 -19l184 -143q30 -23 35 -59.5t-18 -65.5t-59.5 -33t-65.5 19q-25 18 -45 35q-14 12 -42.5 33t-41.5 32q-75 -56 -86 -65q-20 -17 -45 -35q-29 -23 -64.5 -19t-58.5 33t-19 65.5z" />
<glyph unicode="&#xcb;" horiz-adv-x="753" d="M106 66v1171q0 41 29 69.5t70 28.5h409q41 0 70 -28.5t29 -69.5t-29 -69.5t-70 -28.5h-311v-369h270q41 0 70 -28.5t29 -69.5t-29 -70t-70 -29h-270v-409h311q41 0 70 -28.5t29 -69.5t-29 -70t-70 -29h-409q-41 0 -70 29t-29 70zM127 1593q0 49 34.5 84t84.5 35t84.5 -35 t34.5 -84t-34.5 -83.5t-84.5 -34.5t-84.5 34.5t-34.5 83.5zM455 1593q0 50 34.5 84.5t83.5 34.5t84 -35t35 -84t-34.5 -83.5t-84.5 -34.5q-49 0 -83.5 34.5t-34.5 83.5z" />
<glyph unicode="&#xcc;" horiz-adv-x="409" d="M9.5 1690q-2.5 38 23.5 67t64 31.5t67 -23.5l205 -184q29 -26 31.5 -64t-23.5 -67t-64 -31.5t-67 23.5l-205 184q-29 26 -31.5 64zM106 57v1188q0 41 29 69.5t70 28.5t69.5 -28.5t28.5 -69.5v-1188q0 -41 -28.5 -69.5t-69.5 -28.5t-70 28.5t-29 69.5z" />
<glyph unicode="&#xcd;" horiz-adv-x="409" d="M9.5 1517q2.5 38 31.5 64l205 184q29 26 67 23.5t64 -31.5t23.5 -67t-31.5 -64l-205 -184q-29 -26 -67 -23.5t-64 31.5t-23.5 67zM106 57v1188q0 41 29 69.5t70 28.5t69.5 -28.5t28.5 -69.5v-1188q0 -41 -28.5 -69.5t-69.5 -28.5t-70 28.5t-29 69.5z" />
<glyph unicode="&#xce;" horiz-adv-x="409" d="M-68 1521.5q4 36.5 33 59.5l185 143q25 19 55 19t55 -19l184 -143q29 -23 33.5 -59.5t-18.5 -65.5t-59.5 -33t-65.5 19q-25 18 -45 35q-13 12 -42 33t-42 32q-12 -10 -41.5 -31.5t-42.5 -33.5q-20 -17 -45 -35q-29 -23 -65.5 -19t-59.5 33t-19 65.5zM106 57v1188 q0 41 29 69.5t70 28.5t69.5 -28.5t28.5 -69.5v-1188q0 -41 -28.5 -69.5t-69.5 -28.5t-70 28.5t-29 69.5z" />
<glyph unicode="&#xcf;" horiz-adv-x="409" d="M-78 1593q0 49 35 84t84 35t84 -35t35 -84t-34.5 -83.5t-84.5 -34.5t-84.5 34.5t-34.5 83.5zM106 57v1188q0 41 29 69.5t70 28.5t69.5 -28.5t28.5 -69.5v-1188q0 -41 -28.5 -69.5t-69.5 -28.5t-70 28.5t-29 69.5zM250 1593q0 49 35 84t84 35t83.5 -34.5t34.5 -84.5 q0 -49 -34.5 -83.5t-83.5 -34.5q-50 0 -84.5 34.5t-34.5 83.5z" />
<glyph unicode="&#xd0;" horiz-adv-x="903" d="M-25 672q0 38 27.5 65t65.5 27h65v473q0 41 28.5 69.5t69.5 28.5h246q143 0 243.5 -100.5t100.5 -243.5v-680q0 -143 -100.5 -243.5t-243.5 -100.5h-246q-41 0 -69.5 29t-28.5 70v512h-65q-38 0 -65.5 28t-27.5 66zM330 164h147q62 0 105 43t43 104v680q0 61 -43.5 104.5 t-104.5 43.5h-147v-375h106q41 0 67.5 -26.5t26.5 -65.5t-26.5 -66.5t-67.5 -27.5h-106v-414z" />
<glyph unicode="&#xd1;" horiz-adv-x="983" d="M106 57v1188q0 35 21.5 61.5t54.5 34.5q35 7 66 -7.5t45 -45.5q42 -90 129 -268q24 -50 116 -240.5t142 -292.5v758q0 41 28.5 69.5t69.5 28.5t70 -28.5t29 -69.5v-1188q0 -36 -20.5 -62.5t-55.5 -33.5t-64 7.5t-47 45.5q-52 111 -129 269q-222 455 -258 532v-758 q0 -41 -28.5 -69.5t-69.5 -28.5t-70 28.5t-29 69.5zM220 1551q-7 36 13 67q53 77 142 92q90 15 162 -39l16 -12q10 -8 27 -8q18 6 22 16q20 31 56 38t67 -13t38 -56t-13 -67q-48 -76 -140 -92t-164 39l-16 12q-12 9 -27 6q-11 0 -22 -14q-20 -31 -56 -38t-67 13t-38 56z" />
<glyph unicode="&#xd2;" d="M82 303v696q0 142 101.5 243t242.5 101q142 0 243 -100.5t101 -243.5v-696q0 -143 -101 -243.5t-243 -100.5q-141 0 -242.5 101t-101.5 243zM231 1690q-2 38 23 67q26 29 65 31.5t68 -23.5l205 -184q29 -26 30.5 -64t-24.5 -67t-64 -31.5t-67 23.5l-205 184 q-29 26 -31 64zM279 303q0 -61 43.5 -104t103.5 -43q62 0 104.5 43t42.5 104v696q0 62 -43 105t-104 43q-60 0 -103.5 -43.5t-43.5 -104.5v-696z" />
<glyph unicode="&#xd3;" d="M82 303v696q0 142 101.5 243t242.5 101q142 0 243 -100.5t101 -243.5v-696q0 -143 -101 -243.5t-243 -100.5q-141 0 -242.5 101t-101.5 243zM231.5 1517q1.5 38 30.5 64l205 184q29 26 67 23.5t64 -31.5t24.5 -67t-30.5 -64l-205 -184q-29 -26 -67.5 -23.5t-63.5 31.5 q-26 29 -24.5 67zM279 303q0 -61 43.5 -104t103.5 -43q62 0 104.5 43t42.5 104v696q0 62 -43 105t-104 43q-60 0 -103.5 -43.5t-43.5 -104.5v-696z" />
<glyph unicode="&#xd4;" d="M82 303v696q0 142 101.5 243t242.5 101q142 0 243 -100.5t101 -243.5v-696q0 -143 -101 -243.5t-243 -100.5q-141 0 -242.5 101t-101.5 243zM154 1521.5q5 36.5 34 59.5l185 143q25 19 53 19q30 0 55 -19l185 -143q29 -23 34 -59.5t-18 -65.5t-59.5 -33t-65.5 19 q-25 18 -45 35q-13 11 -42.5 32t-43.5 33q-12 -10 -41.5 -31.5t-42.5 -33.5q-20 -17 -45 -35q-29 -23 -65.5 -19t-59.5 33t-18 65.5zM279 303q0 -61 43.5 -104t103.5 -43q62 0 104.5 43t42.5 104v696q0 62 -43 105t-104 43q-60 0 -103.5 -43.5t-43.5 -104.5v-696z" />
<glyph unicode="&#xd5;" d="M82 303v696q0 143 101 243.5t243 100.5q141 0 242.5 -101t101.5 -243v-696q0 -142 -101.5 -243t-242.5 -101q-142 0 -243 100.5t-101 243.5zM153.5 1551.5q-7.5 35.5 14.5 66.5q48 76 139 92q92 16 164 -39l16 -12q10 -8 25 -8q1 0 5.5 1t6.5 2.5l6 4.5t7 8 q20 31 55.5 38t66.5 -13q30 -21 37.5 -56.5t-12.5 -66.5q-53 -77 -141 -92q-93 -16 -162 39l-16 12q-13 11 -27 6q-15 0 -23 -14q-23 -31 -57 -38t-65 13q-32 21 -39.5 56.5zM279 303q0 -61 42.5 -104t104.5 -43q60 0 103.5 43t43.5 104v696q0 61 -43.5 104.5t-103.5 43.5 q-61 0 -104 -43t-43 -105v-696z" />
<glyph unicode="&#xd6;" d="M82 303v696q0 143 101 243.5t243 100.5q141 0 242.5 -101t101.5 -243v-696q0 -142 -101.5 -243t-242.5 -101q-142 0 -243 100.5t-101 243.5zM143 1593q0 49 34.5 84t84.5 35t84.5 -35t34.5 -84t-34.5 -83.5t-84.5 -34.5t-84.5 34.5t-34.5 83.5zM279 303q0 -61 42.5 -104 t104.5 -43q60 0 103.5 43t43.5 104v696q0 61 -43.5 104.5t-103.5 43.5q-61 0 -104 -43t-43 -105v-696zM471 1593q0 49 34.5 84t84.5 35t84.5 -35t34.5 -84t-34.5 -83.5t-84.5 -34.5t-84.5 34.5t-34.5 83.5z" />
<glyph unicode="&#xd7;" d="M123 385q0 41 29 70l135 135l-135 135q-29 29 -29 70q0 40 29 69t69 29q41 0 70 -29l135 -135l135 135q29 29 70 29q40 0 69 -29t29 -69q0 -41 -29 -70l-135 -135l135 -135q29 -29 29 -70t-29 -70q-28 -28 -69 -28q-42 0 -70 28l-135 136l-135 -136q-28 -28 -70 -28 q-41 0 -69 28q-29 29 -29 70z" />
<glyph unicode="&#xd8;" horiz-adv-x="872" d="M-22.5 -51q-10.5 36 8.5 71l114 209q-8 31 -8 74v696q0 143 101 243.5t243 100.5q123 0 226 -83l61 112q19 35 55.5 45.5t71.5 -8.5t45.5 -55.5t-8.5 -71.5l-115 -209q8 -33 8 -74v-696q0 -142 -101.5 -243t-242.5 -101q-135 0 -225 84l-61 -113q-19 -35 -55.5 -45 t-71.5 9t-45.5 55zM289 575l272 502q-46 70 -125 70q-61 0 -104 -43t-43 -105v-424zM309 225q45 -69 127 -69q60 0 104 43t44 104v424z" />
<glyph unicode="&#xd9;" horiz-adv-x="868" d="M90 303v942q0 41 28.5 69.5t69.5 28.5t70 -28.5t29 -69.5v-942q0 -61 42.5 -104t104.5 -43t105 43t43 104v942q0 41 28.5 69.5t69.5 28.5t69.5 -28.5t28.5 -69.5v-942q0 -143 -101 -243.5t-243 -100.5t-243 100.5t-101 243.5zM237.5 1690q-1.5 38 24.5 67t64 31.5 t67 -23.5l205 -184q29 -26 31.5 -64t-23.5 -67t-65 -31.5t-68 23.5l-205 184q-29 26 -30.5 64z" />
<glyph unicode="&#xda;" horiz-adv-x="868" d="M90 303v942q0 41 28.5 69.5t69.5 28.5t70 -28.5t29 -69.5v-942q0 -61 42.5 -104t104.5 -43t105 43t43 104v942q0 41 28.5 69.5t69.5 28.5t69.5 -28.5t28.5 -69.5v-942q0 -143 -101 -243.5t-243 -100.5t-243 100.5t-101 243.5zM238.5 1517q2.5 38 31.5 64l205 184 q29 26 67 23.5t64 -31.5t23.5 -67t-31.5 -64l-205 -184q-29 -26 -67 -23.5t-64 31.5t-23.5 67z" />
<glyph unicode="&#xdb;" horiz-adv-x="868" d="M90 303v942q0 41 28.5 69.5t69.5 28.5t70 -28.5t29 -69.5v-942q0 -61 43.5 -104t103.5 -43q62 0 105 43t43 104v942q0 41 28.5 69.5t69.5 28.5t69.5 -28.5t28.5 -69.5v-942q0 -143 -101 -243.5t-243 -100.5q-141 0 -242.5 101t-101.5 243zM162 1521.5q5 36.5 35 59.5 l184 143q22 19 53 19q30 0 55 -19l185 -143q29 -23 33 -59.5t-19 -65.5t-58.5 -33t-64.5 19q-25 18 -45 35q-13 11 -43 32t-43 33q-12 -10 -41.5 -31.5t-42.5 -33.5q-20 -17 -45 -35q-29 -23 -65.5 -19t-59.5 33t-18 65.5z" />
<glyph unicode="&#xdc;" horiz-adv-x="868" d="M90 303v942q0 41 28.5 69.5t69.5 28.5t70 -28.5t29 -69.5v-942q0 -61 43.5 -104t103.5 -43q62 0 105 43t43 104v942q0 41 28.5 69.5t69.5 28.5t69.5 -28.5t28.5 -69.5v-942q0 -143 -101 -243.5t-243 -100.5q-141 0 -242.5 101t-101.5 243zM152 1593q0 50 34.5 84.5 t83.5 34.5q50 0 84.5 -35t34.5 -84t-34.5 -83.5t-84.5 -34.5t-84 34.5t-34 83.5zM479 1593q0 49 34.5 84t84.5 35t84.5 -35t34.5 -84t-34.5 -83.5t-84.5 -34.5t-84.5 34.5t-34.5 83.5z" />
<glyph unicode="&#xdd;" horiz-adv-x="823" d="M31.5 1275.5q13.5 38.5 50.5 57.5q35 19 73.5 5.5t57.5 -50.5l68 -135q62 -128 131 -262q69 134 131 262l67 135q19 37 57.5 50.5t75.5 -5.5q36 -19 48.5 -57.5t-5.5 -75.5l-276 -551v-592q0 -41 -28.5 -69.5t-69.5 -28.5t-70 28.5t-29 69.5v592l-276 551 q-19 37 -5.5 75.5zM217 1517q2 38 31 64l205 184q29 26 67 23.5t64 -31.5t24.5 -67t-30.5 -64l-205 -184q-29 -26 -68 -23.5t-65 31.5q-25 29 -23 67z" />
<glyph unicode="&#xde;" horiz-adv-x="819" d="M106 57v1180q0 41 29 69.5t70 28.5t69.5 -28.5t28.5 -69.5v-160h148q141 0 242.5 -101t101.5 -243v-123q0 -142 -101.5 -243t-242.5 -101h-148v-209q0 -41 -28.5 -69.5t-69.5 -28.5t-70 28.5t-29 69.5zM303 463h148q60 0 103.5 43t43.5 104v123q0 61 -43.5 104.5 t-103.5 43.5h-148v-418z" />
<glyph unicode="&#xdf;" horiz-adv-x="876" d="M113 57v1024q0 84 41.5 154t113.5 108q74 38 155.5 34t149.5 -48q63 -41 98.5 -107.5t35.5 -140.5q0 -22 -2 -28q-6 -84 -58 -148q141 -101 141 -274v-328q0 -140 -99 -239t-238 -99q-38 0 -65.5 27t-27.5 65t27.5 65.5t65.5 27.5q63 0 108 45t45 108v328q0 63 -45 108 t-108 45q-35 0 -60 20.5t-31 53.5q-6 32 9.5 61.5t46.5 41.5l37 16q63 26 69 94q9 62 -51 105q-56 39 -115 4q-28 -13 -43.5 -40t-15.5 -59v-1024q0 -38 -27 -65t-65 -27t-65 27t-27 65z" />
<glyph unicode="&#xe0;" horiz-adv-x="720" d="M31 270q0 123 87 210t210 87h112v109q0 33 -18.5 60.5t-48.5 39.5q-30 13 -63 6.5t-56 -30.5q-27 -27 -66 -27q-36 0 -63 27q-29 29 -29 65q0 37 29 66q63 63 149 80.5t168 -17.5q85 -35 134 -107t49 -163v-610q0 -38 -27.5 -65.5t-65.5 -27.5h-204q-123 0 -210 87 t-87 210zM178.5 1281q-1.5 35 22.5 65q25 26 61 28.5t62 -22.5l204 -185q29 -24 30.5 -60t-23.5 -65q-23 -27 -58.5 -28.5t-64.5 22.5l-205 185q-27 25 -28.5 60zM215 270q0 -47 33 -79.5t80 -32.5h112v225h-112q-47 0 -80 -33t-33 -80z" />
<glyph unicode="&#xe1;" horiz-adv-x="720" d="M31 270q0 123 87 210t210 87h112v109q0 33 -18.5 60.5t-48.5 39.5q-30 13 -63 6.5t-56 -30.5q-27 -27 -66 -27q-36 0 -63 27q-29 29 -29 65q0 37 29 66q63 63 149 80.5t168 -17.5q85 -35 134 -107t49 -163v-610q0 -38 -27.5 -65.5t-65.5 -27.5h-204q-123 0 -210 87 t-87 210zM178.5 1107q1.5 35 28.5 60l205 185q30 24 65 22.5t60 -28.5q24 -29 22 -65t-31 -60l-204 -185q-26 -25 -62 -22.5t-61 28.5q-24 30 -22.5 65zM215 270q0 -47 33 -79.5t80 -32.5h112v225h-112q-47 0 -80 -33t-33 -80z" />
<glyph unicode="&#xe2;" horiz-adv-x="720" d="M31 270q0 123 87 210t210 87h112v109q0 33 -18.5 60.5t-48.5 39.5q-68 27 -119 -24q-27 -27 -66 -27q-36 0 -63 27q-29 29 -29 65q0 37 29 66q63 63 148.5 80.5t170.5 -17.5q83 -36 132 -108t49 -162v-610q0 -38 -27.5 -65.5t-65.5 -27.5h-204q-123 0 -210 87t-87 210z M100 1112q4 32 33 55l184 144q22 16 52 16q29 0 51 -16l184 -144q27 -24 31.5 -55t-17.5 -61q-23 -29 -55 -33.5t-61 18.5q-31 23 -47 37q-13 12 -43 34.5t-43 33.5q-14 -11 -43 -33.5t-43 -34.5q-16 -14 -47 -37q-29 -23 -61.5 -18.5t-55.5 33.5t-19 61zM215 270 q0 -47 33 -79.5t80 -32.5h112v225h-112q-47 0 -80 -33t-33 -80z" />
<glyph unicode="&#xe3;" horiz-adv-x="720" d="M31 270q0 123 87 210t210 87h112v109q0 33 -18.5 60.5t-48.5 39.5q-68 27 -119 -24q-27 -27 -66 -27q-36 0 -63 27q-29 29 -29 65q0 37 29 66q63 63 148.5 80.5t170.5 -17.5q83 -36 132 -108t49 -162v-610q0 -38 -27.5 -65.5t-65.5 -27.5h-204q-123 0 -210 87t-87 210z M103 1143.5q-7 33.5 12 62.5q52 74 137 88q89 16 158 -39l16 -12q15 -9 31 -6q17 0 26 16q20 29 53 36.5t62 -11.5q29 -20 36.5 -54t-11.5 -63q-51 -73 -138 -88q-88 -15 -157 39l-17 12q-15 9 -30 6q-18 0 -27 -16q-20 -29 -53 -36t-62 12q-29 20 -36 53.5zM215 270 q0 -47 33 -79.5t80 -32.5h112v225h-112q-47 0 -80 -33t-33 -80z" />
<glyph unicode="&#xe4;" horiz-adv-x="720" d="M31 270q0 123 87 210t210 87h112v109q0 33 -18.5 60.5t-48.5 39.5q-68 27 -119 -24q-27 -27 -66 -27q-36 0 -63 27q-29 29 -29 65q0 37 29 66q63 63 148.5 80.5t170.5 -17.5q83 -36 132 -108t49 -162v-610q0 -38 -27.5 -65.5t-65.5 -27.5h-204q-123 0 -210 87t-87 210z M92 1184q0 47 33 79.5t80 32.5t79.5 -32.5t32.5 -79.5t-32.5 -80t-79.5 -33t-80 33t-33 80zM215 270q0 -47 33 -79.5t80 -32.5h112v225h-112q-47 0 -80 -33t-33 -80zM420 1184q0 47 32.5 79.5t79.5 32.5t80 -32.5t33 -79.5t-33 -80t-80 -33t-79.5 33t-32.5 80z" />
<glyph unicode="&#xe5;" horiz-adv-x="720" d="M31 270q0 123 87 210t210 87h112v109q0 33 -18.5 60.5t-48.5 39.5q-69 27 -117 -24q-27 -27 -68 -27q-36 0 -63 27q-29 29 -29 65q0 37 29 66q63 63 148.5 80.5t170.5 -17.5q83 -36 132 -108t49 -162v-610q0 -38 -27.5 -65.5t-65.5 -27.5h-204q-123 0 -210 87t-87 210z M172 1204q0 82 57.5 139.5t139.5 57.5t139 -57.5t57 -139.5t-57 -139t-139 -57t-139.5 57t-57.5 139zM215 270q0 -47 33 -79.5t80 -32.5h112v225h-112q-47 0 -80 -33t-33 -80zM319 1204q0 -20 15 -34.5t35 -14.5t34.5 14.5t14.5 34.5t-14.5 34.5t-34.5 14.5t-35 -14.5 t-15 -34.5z" />
<glyph unicode="&#xe6;" horiz-adv-x="1107" d="M37.5 204q-17.5 86 17.5 171q35 86 108.5 135t166.5 49h112v113q0 35 -19 62.5t-50 41.5q-72 27 -123 -24q-29 -29 -66 -29q-36 0 -65 29q-27 27 -27 63q0 39 27 66q66 66 152 83t171 -18q57 -23 93 -59q88 82 204 82q123 0 210 -87t87 -210v-205q0 -38 -27 -65t-65 -27 h-317v-113q0 -35 18.5 -62.5t50.5 -41.5q30 -13 64.5 -6.5t58.5 30.5q29 29 64 29q36 0 65 -29t29 -65q0 -37 -29 -66q-63 -63 -149.5 -80.5t-173.5 17.5q-56 22 -90 59q-36 -36 -93 -59q-85 -35 -170.5 -18t-152.5 81q-64 67 -81.5 153zM218.5 240q6.5 -33 31.5 -58 q51 -51 123 -24q31 14 50 41.5t19 62.5v113h-112q-36 0 -64.5 -19t-40.5 -51q-13 -32 -6.5 -65zM627 559h225v113q0 47 -33 79.5t-80 32.5t-79.5 -32.5t-32.5 -79.5v-113z" />
<glyph unicode="&#xe7;" horiz-adv-x="677" d="M88 262v410q0 92 49 165.5t135 108.5q85 35 171.5 18t152.5 -83q27 -27 27 -66q0 -36 -27 -63q-29 -29 -66 -29q-36 0 -65 29q-51 51 -123 24q-32 -14 -51 -41.5t-19 -62.5v-410q0 -35 19 -62.5t51 -41.5q16 -8 41 -8h2h2q46 0 78 32q29 29 65 29q37 0 66 -29 q27 -27 27 -65q0 -39 -27 -66q-52 -49 -119 -71v-48q0 -69 -33.5 -128.5t-93.5 -94.5q-35 -19 -71 -9.5t-56 44.5q-19 32 -9.5 69.5t44.5 55.5q35 24 35 63v48q-3 1 -10.5 4t-10.5 4q-86 35 -135 108.5t-49 165.5z" />
<glyph unicode="&#xe8;" horiz-adv-x="753" d="M88 262v410q0 123 87 210t210 87t210 -87t87 -210v-205q0 -38 -27 -65t-65 -27h-318v-113q0 -35 19.5 -62.5t50.5 -41.5q72 -27 123 24q29 29 65 29q37 0 66 -29q27 -27 27 -65q0 -39 -27 -66q-66 -63 -152.5 -80.5t-171.5 17.5q-86 35 -135 108.5t-49 165.5zM194.5 1281 q-1.5 36 22.5 65q25 27 60 28.5t65 -22.5l205 -185q27 -25 28.5 -60t-22.5 -65q-25 -26 -61 -28.5t-62 22.5l-205 185q-29 24 -30.5 60zM272 559h226v113q0 47 -33 79.5t-80 32.5t-80 -32.5t-33 -79.5v-113z" />
<glyph unicode="&#xe9;" horiz-adv-x="753" d="M88 262v410q0 123 87 210t210 87t210 -87t87 -210v-205q0 -38 -27 -65t-65 -27h-318v-113q0 -35 19.5 -62.5t50.5 -41.5q72 -27 123 24q29 29 65 29q37 0 66 -29q27 -27 27 -65q0 -39 -27 -66q-66 -63 -152.5 -80.5t-171.5 17.5q-86 35 -135 108.5t-49 165.5zM194.5 1107 q1.5 36 30.5 60l205 185q26 25 62 22.5t61 -28.5q24 -30 22.5 -65t-28.5 -60l-205 -185q-30 -24 -65 -22.5t-60 28.5q-24 29 -22.5 65zM272 559h226v113q0 47 -33 79.5t-80 32.5t-80 -32.5t-33 -79.5v-113z" />
<glyph unicode="&#xea;" horiz-adv-x="753" d="M88 262v410q0 123 87 210t210 87t210 -87t87 -210v-205q0 -38 -27 -65t-65 -27h-318v-113q0 -35 19.5 -62.5t50.5 -41.5q72 -27 123 24q29 29 65 29q37 0 66 -29q27 -27 27 -65q0 -39 -27 -66q-66 -63 -152.5 -80.5t-171.5 17.5q-86 35 -135 108.5t-49 165.5zM119.5 1112 q4.5 32 30.5 55l184 144q22 16 51 16t51 -16l185 -144q29 -23 33 -55t-19 -61q-20 -29 -54 -33.5t-63 18.5q-31 23 -47 37q-14 12 -43 34.5t-43 33.5q-13 -11 -42.5 -33.5t-43.5 -34.5q-16 -14 -47 -37q-26 -23 -60 -18.5t-57 33.5q-20 29 -15.5 61zM272 559h226v113 q0 47 -33 79.5t-80 32.5t-80 -32.5t-33 -79.5v-113z" />
<glyph unicode="&#xeb;" horiz-adv-x="753" d="M88 262v410q0 123 87 210t210 87t210 -87t87 -210v-205q0 -38 -27 -65t-65 -27h-318v-113q0 -35 19.5 -62.5t50.5 -41.5q72 -27 123 24q29 29 65 29q37 0 66 -29q27 -27 27 -65q0 -39 -27 -66q-66 -63 -152.5 -80.5t-171.5 17.5t-134.5 108.5t-49.5 165.5zM109 1184 q0 47 32.5 79.5t79.5 32.5t80 -32.5t33 -79.5t-33 -80t-80 -33t-79.5 33t-32.5 80zM272 559h226v113q0 47 -33 79.5t-80 32.5t-80 -32.5t-33 -79.5v-113zM436 1184q0 47 33 79.5t80 32.5t80 -32.5t33 -79.5t-33 -80t-80 -33t-80 33t-33 80z" />
<glyph unicode="&#xec;" horiz-adv-x="409" d="M-26 1281q-1 36 24 65q23 26 60 28.5t63 -22.5l205 -185q29 -24 30 -60t-24 -65q-25 -26 -61 -28.5t-62 22.5l-205 185q-29 24 -30 60zM113 57v820q0 38 27.5 65t64.5 27q38 0 65 -27t27 -65v-820q0 -38 -27 -65t-65 -27q-37 0 -64.5 27t-27.5 65z" />
<glyph unicode="&#xed;" horiz-adv-x="409" d="M54 1107q1 36 30 60l205 185q29 24 64.5 22.5t58.5 -28.5q25 -29 24 -65t-30 -60l-205 -185q-26 -25 -62 -22.5t-61 28.5q-25 29 -24 65zM113 57v820q0 38 27 65t65 27q37 0 64.5 -27t27.5 -65v-820q0 -38 -27.5 -65t-64.5 -27q-38 0 -65 27t-27 65z" />
<glyph unicode="&#xee;" horiz-adv-x="409" d="M-62 1112q4 32 33 55l185 144q22 16 49 16q29 0 51 -16l184 -144q29 -23 33.5 -55t-16.5 -61q-23 -29 -57 -33.5t-60 18.5q-31 23 -47 37q-13 12 -43 34.5t-43 33.5q-13 -11 -44 -33.5t-44 -34.5q-16 -14 -47 -37q-26 -23 -60.5 -18.5t-54.5 33.5q-23 29 -19 61zM115 57 v820q0 38 27 65t65 27q37 0 64.5 -27t27.5 -65v-820q0 -38 -27.5 -65t-64.5 -27q-38 0 -65 27t-27 65z" />
<glyph unicode="&#xef;" horiz-adv-x="409" d="M-72 1184q0 47 33 79.5t80 32.5t80 -32.5t33 -79.5t-33 -80t-80 -33t-80 33t-33 80zM113 57v820q0 38 27 65t65 27t65 -27t27 -65v-820q0 -38 -27 -65t-65 -27t-65 27t-27 65zM256 1184q0 47 33 79.5t80 32.5t79.5 -32.5t32.5 -79.5t-32.5 -80t-79.5 -33t-80 33t-33 80z " />
<glyph unicode="&#xf0;" horiz-adv-x="770" d="M88 262v410q0 123 87 210t210 87q15 0 43 -4q-31 60 -53 86l-64 -43q-31 -20 -65 -13t-58 37q-20 31 -12.5 65t37.5 58l39 25q-24 17 -43 28q-33 24 -40.5 60t15.5 69q20 33 57.5 40.5t69.5 -15.5q48 -31 99 -76l49 33q31 20 66.5 12.5t56.5 -37.5q20 -31 12.5 -66.5 t-37.5 -56.5l-29 -18q36 -48 56 -90q98 -188 98 -391v-410q0 -123 -87 -210t-210 -87t-210 87t-87 210zM272 262q0 -47 33 -79.5t80 -32.5t80 32.5t33 79.5v410q0 47 -33 79.5t-80 32.5t-80 -32.5t-33 -79.5v-410z" />
<glyph unicode="&#xf1;" horiz-adv-x="802" d="M113 57v811q0 38 27 65.5t65 27.5h205q123 0 210 -87t87 -210v-607q0 -38 -27.5 -65t-65.5 -27t-65 27t-27 65v607q0 47 -32.5 79.5t-79.5 32.5h-113v-719q0 -38 -27 -65t-65 -27t-65 27t-27 65zM143 1143.5q-6 33.5 13 62.5q52 74 137 88q89 16 158 -39l16 -12 q15 -9 31 -6q17 0 26 16q19 29 52.5 36.5t62.5 -11.5q29 -20 36.5 -54t-11.5 -63q-51 -73 -138 -88t-159 39l-17 12q-13 10 -31 6q-14 0 -24 -16q-20 -29 -54 -36t-63 12q-29 20 -35 53.5z" />
<glyph unicode="&#xf2;" horiz-adv-x="770" d="M88 262v410q0 123 87 210t210 87t210 -87t87 -210v-410q0 -123 -87 -210t-210 -87t-210 87t-87 210zM194.5 1281q-1.5 35 22.5 65q25 26 61 28.5t62 -22.5l205 -185q29 -24 30.5 -60t-22.5 -65q-25 -27 -60 -28.5t-65 22.5l-205 185q-27 25 -28.5 60zM272 262 q0 -47 33 -79.5t80 -32.5t80 32.5t33 79.5v410q0 47 -33 79.5t-80 32.5t-80 -32.5t-33 -79.5v-410z" />
<glyph unicode="&#xf3;" horiz-adv-x="770" d="M88 262v410q0 123 87 210t210 87t210 -87t87 -210v-410q0 -123 -87 -210t-210 -87t-210 87t-87 210zM194.5 1107q1.5 35 28.5 60l205 185q30 24 65 22.5t60 -28.5q24 -30 22.5 -65t-28.5 -60l-205 -185q-30 -24 -65 -22.5t-60 28.5q-24 30 -22.5 65zM272 262 q0 -47 33 -79.5t80 -32.5t80 32.5t33 79.5v410q0 47 -33 79.5t-80 32.5t-80 -32.5t-33 -79.5v-410z" />
<glyph unicode="&#xf4;" horiz-adv-x="770" d="M88 262v410q0 123 87 210t210 87t210 -87t87 -210v-410q0 -123 -87 -210t-210 -87t-210 87t-87 210zM116.5 1112q4.5 32 33.5 55l184 144q22 16 51 16t51 -16l185 -144q27 -24 31.5 -55t-17.5 -61q-23 -29 -55.5 -33.5t-61.5 18.5q-31 23 -47 37q-14 12 -43 34.5 t-43 33.5q-13 -11 -42.5 -33.5t-43.5 -34.5q-16 -14 -47 -37q-29 -23 -61.5 -18.5t-55.5 33.5t-18.5 61zM272 262q0 -47 33 -79.5t80 -32.5t80 32.5t33 79.5v410q0 47 -33 79.5t-80 32.5t-80 -32.5t-33 -79.5v-410z" />
<glyph unicode="&#xf5;" horiz-adv-x="770" d="M88 262v410q0 123 87 210t210 87t210 -87t87 -210v-410q0 -123 -87 -210t-210 -87t-210 87t-87 210zM119.5 1143.5q-7.5 33.5 11.5 62.5q54 73 137 88q89 16 158 -39l16 -12q15 -9 31 -6q17 0 27 16q20 29 53.5 36.5t62.5 -11.5q29 -20 35.5 -54t-12.5 -63 q-47 -72 -137 -88q-89 -16 -158 39l-16 12q-15 9 -31 6q-18 0 -27 -16q-19 -29 -52 -36t-62 12q-29 20 -36.5 53.5zM272 262q0 -47 33 -79.5t80 -32.5t80 32.5t33 79.5v410q0 47 -33 79.5t-80 32.5t-80 -32.5t-33 -79.5v-410z" />
<glyph unicode="&#xf6;" horiz-adv-x="770" d="M88 262v410q0 123 87 210t210 87t210 -87t87 -210v-410q0 -123 -87 -210t-210 -87t-210 87t-87 210zM109 1184q0 47 32.5 79.5t79.5 32.5t80 -32.5t33 -79.5t-33 -80t-80 -33t-79.5 33t-32.5 80zM272 262q0 -47 33 -79.5t80 -32.5t80 32.5t33 79.5v410q0 47 -33 79.5 t-80 32.5t-80 -32.5t-33 -79.5v-410zM436 1184q0 47 33 79.5t80 32.5t80 -32.5t33 -79.5t-33 -80t-80 -33t-80 33t-33 80z" />
<glyph unicode="&#xf7;" d="M82 590q0 41 28.5 69.5t69.5 28.5h492q41 0 69.5 -28.5t28.5 -69.5t-28.5 -69.5t-69.5 -28.5h-492q-41 0 -69.5 28.5t-28.5 69.5zM307 324q0 49 34.5 83.5t84.5 34.5t84.5 -34.5t34.5 -83.5q0 -50 -34.5 -84.5t-84.5 -34.5t-84.5 34.5t-34.5 84.5zM307 856 q0 50 34.5 84.5t84.5 34.5t84.5 -34.5t34.5 -84.5t-34.5 -84.5t-84.5 -34.5t-84.5 34.5t-34.5 84.5z" />
<glyph unicode="&#xf8;" horiz-adv-x="790" d="M23 -47q-9 34 10 65l84 144q-19 49 -19 100v410q0 123 87 210t210 87q92 0 162 -49l49 81q19 32 53.5 42t65.5 -9q32 -19 42 -54t-9 -67l-84 -141q18 -47 18 -100v-410q0 -123 -87 -210t-210 -87q-90 0 -164 49l-47 -84q-19 -31 -54 -40t-67 10q-31 19 -40 53zM283 449 l182 311q-27 24 -70 24q-47 0 -79.5 -32.5t-32.5 -79.5v-223zM326 174q27 -24 69 -24q47 0 80 32.5t33 79.5v223z" />
<glyph unicode="&#xf9;" horiz-adv-x="802" d="M96 270v607q0 38 27 65t65 27t65.5 -27t27.5 -65v-607q0 -47 32.5 -79.5t79.5 -32.5h113v719q0 38 27 65t65 27t65 -27t27 -65v-811q0 -38 -27 -65.5t-65 -27.5h-205q-123 0 -210 87t-87 210zM203 1281q-1 36 24 65q23 27 58.5 28.5t64.5 -22.5l205 -185q27 -25 28.5 -60 t-22.5 -65q-25 -26 -61 -28.5t-62 22.5l-205 185q-29 24 -30 60z" />
<glyph unicode="&#xfa;" horiz-adv-x="802" d="M96 270v607q0 38 27.5 65t64.5 27q38 0 65.5 -27t27.5 -65v-607q0 -47 32.5 -79.5t79.5 -32.5h113v719q0 38 27.5 65t64.5 27q38 0 65 -27t27 -65v-811q0 -38 -27 -65.5t-65 -27.5h-205q-123 0 -210 87t-87 210zM203 1107q1 36 30 60l205 185q26 25 62 22.5t61 -28.5 q25 -29 24 -65t-30 -60l-205 -185q-29 -24 -64.5 -22.5t-58.5 28.5q-25 29 -24 65z" />
<glyph unicode="&#xfb;" horiz-adv-x="802" d="M96 270v607q0 38 27.5 65t64.5 27q38 0 65.5 -27t27.5 -65v-607q0 -47 32.5 -79.5t79.5 -32.5h113v719q0 38 27.5 65t64.5 27q38 0 65 -27t27 -65v-811q0 -38 -27 -65.5t-65 -27.5h-205q-123 0 -210 87t-87 210zM126.5 1112q4.5 32 33.5 55l184 144q22 16 49 16 q29 0 51 -16l185 -144q29 -23 33 -55t-19 -61q-20 -29 -54.5 -33.5t-60.5 18.5q-31 23 -47 37q-13 12 -43.5 34.5t-44.5 33.5q-13 -11 -43 -33.5t-43 -34.5q-16 -14 -47 -37q-26 -23 -60 -18.5t-57 33.5q-21 29 -16.5 61z" />
<glyph unicode="&#xfc;" horiz-adv-x="802" d="M96 270v607q0 38 27.5 65t64.5 27q38 0 65.5 -27t27.5 -65v-607q0 -47 32.5 -79.5t79.5 -32.5h113v719q0 38 27.5 65t64.5 27q38 0 65 -27t27 -65v-811q0 -38 -27 -65.5t-65 -27.5h-205q-122 0 -209.5 87t-87.5 210zM117 1184q0 47 32.5 79.5t79.5 32.5t80 -32.5 t33 -79.5t-33 -80t-80 -33t-79.5 33t-32.5 80zM444 1184q0 47 33 79.5t80 32.5t80 -32.5t33 -79.5t-33 -80t-80 -33t-80 33t-33 80z" />
<glyph unicode="&#xfd;" horiz-adv-x="755" d="M10 -352q0 38 27 65t65 27t68 22.5t41 57.5l72 237l-240 793q-11 37 7.5 71t55.5 44q36 11 70.5 -7.5t44.5 -54.5l158 -524l156 524q12 37 45.5 55t68.5 7q37 -11 55.5 -44.5t8.5 -70.5l-246 -819l-80 -264q-27 -95 -106 -152q-77 -59 -179 -59q-38 0 -65 27t-27 65z M187 1107q1 36 30 60l205 185q29 24 64.5 22.5t58.5 -28.5q25 -29 24 -65t-30 -60l-205 -185q-26 -25 -62 -22.5t-61 28.5q-25 29 -24 65z" />
<glyph unicode="&#xfe;" horiz-adv-x="794" d="M113 -352v1638q0 38 27 65t65 27t65 -27t27 -65v-317h113q123 0 210 -87t87 -210v-410q0 -123 -87 -210t-210 -87h-113v-317q0 -38 -27 -65t-65 -27t-65 27t-27 65zM297 150h113q47 0 79.5 32.5t32.5 79.5v410q0 47 -32.5 79.5t-79.5 32.5h-113v-634z" />
<glyph unicode="&#xff;" horiz-adv-x="755" d="M10 -352q0 38 27 65t65 27t68 22.5t41 57.5l72 237l-238 793q-12 37 6 70.5t55 44.5t71 -7t44 -55l158 -524l158 524q10 37 43.5 55t70.5 7q35 -11 53.5 -44.5t8.5 -70.5l-246 -819l-80 -264q-27 -95 -106 -152q-77 -59 -179 -59q-38 0 -65 27t-27 65zM102 1184 q0 47 33 79.5t80 32.5t80 -32.5t33 -79.5t-33 -80t-80 -33t-80 33t-33 80zM430 1184q0 47 33 79.5t80 32.5t79.5 -32.5t32.5 -79.5t-32.5 -80t-79.5 -33t-80 33t-33 80z" />
<glyph unicode="&#x152;" horiz-adv-x="1220" d="M82 303v696q0 143 101 243.5t243 100.5q93 0 170 -45q27 37 76 37h409q41 0 70 -28.5t29 -69.5t-29 -69.5t-70 -28.5h-311v-181v-188h270q41 0 70 -28.5t29 -69.5t-29 -70t-70 -29h-270v-229v-180h311q41 0 70 -28.5t29 -69.5t-29 -70t-70 -29h-409q-49 0 -76 37 q-77 -45 -170 -45q-142 0 -243 100.5t-101 243.5zM279 303q0 -61 42.5 -104t104.5 -43t104.5 43t42.5 104v41v614v41q0 62 -43 105t-104 43t-104 -43t-43 -105v-696z" />
<glyph unicode="&#x153;" horiz-adv-x="1163" d="M88 262v410q0 123 87 210t210 87q117 0 205 -82q88 82 205 82q123 0 210 -87t87 -210v-205q0 -38 -27.5 -65t-65.5 -27h-317v-113q0 -35 19 -62.5t51 -41.5q30 -13 64 -6.5t58 30.5q29 29 64 29q37 0 66 -29q28 -28 28 -65q0 -38 -28 -66q-63 -63 -150 -80.5t-174 17.5 q-56 22 -90 59q-88 -82 -205 -82q-123 0 -210 87t-87 210zM272 262q0 -47 33 -79.5t80 -32.5t80 32.5t33 79.5v410q0 47 -33 79.5t-80 32.5t-80 -32.5t-33 -79.5v-410zM682 559h225v113q0 47 -32.5 79.5t-79.5 32.5t-80 -32.5t-33 -79.5v-113z" />
<glyph unicode="&#x178;" horiz-adv-x="823" d="M30.5 1275.5q12.5 38.5 49.5 57.5q37 18 74.5 5t56.5 -50l68 -135q62 -128 131 -262q69 134 131 262l67 135q19 37 57.5 50.5t75.5 -5.5t49.5 -57.5t-6.5 -75.5l-276 -551v-592q0 -41 -28.5 -69.5t-69.5 -28.5t-70 28.5t-29 69.5v592l-276 551q-17 37 -4.5 75.5z M127 1593q0 49 34.5 84t84.5 35t84.5 -35t34.5 -84t-34.5 -83.5t-84.5 -34.5t-84.5 34.5t-34.5 83.5zM455 1593q0 50 34.5 84.5t83.5 34.5t84 -35t35 -84t-34.5 -83.5t-84.5 -34.5q-49 0 -83.5 34.5t-34.5 83.5z" />
<glyph unicode="&#x2c6;" horiz-adv-x="1024" d="M246 1112q4 32 30 55l185 144q22 16 51 16t51 -16l185 -144q29 -23 33 -55t-19 -61q-20 -29 -54 -33.5t-63 18.5q-31 23 -47 37q-14 12 -43 34.5t-43 33.5q-13 -11 -42.5 -33.5t-43.5 -34.5q-16 -14 -47 -37q-29 -23 -61.5 -18.5t-55.5 33.5q-20 29 -16 61z" />
<glyph unicode="&#x2dc;" horiz-adv-x="1024" d="M246.5 1143.5q-7.5 33.5 11.5 62.5q54 73 137 88q89 16 158 -39l16 -12q15 -9 31 -6q17 0 27 16q20 29 53.5 36.5t62.5 -11.5q29 -20 35.5 -54t-12.5 -63q-47 -72 -137 -88q-89 -16 -158 39l-16 12q-15 9 -31 6q-18 0 -27 -16q-19 -29 -52 -36t-62 12q-29 20 -36.5 53.5z " />
<glyph unicode="&#x2000;" horiz-adv-x="907" />
<glyph unicode="&#x2001;" horiz-adv-x="1815" />
<glyph unicode="&#x2002;" horiz-adv-x="907" />
<glyph unicode="&#x2003;" horiz-adv-x="1815" />
<glyph unicode="&#x2004;" horiz-adv-x="605" />
<glyph unicode="&#x2005;" horiz-adv-x="453" />
<glyph unicode="&#x2006;" horiz-adv-x="302" />
<glyph unicode="&#x2007;" horiz-adv-x="302" />
<glyph unicode="&#x2008;" horiz-adv-x="226" />
<glyph unicode="&#x2009;" horiz-adv-x="363" />
<glyph unicode="&#x200a;" horiz-adv-x="100" />
<glyph unicode="&#x2010;" d="M82 590q0 41 28.5 69.5t69.5 28.5h492q41 0 69.5 -28.5t28.5 -69.5t-28.5 -69.5t-69.5 -28.5h-492q-41 0 -69.5 28.5t-28.5 69.5z" />
<glyph unicode="&#x2011;" d="M82 590q0 41 28.5 69.5t69.5 28.5h492q41 0 69.5 -28.5t28.5 -69.5t-28.5 -69.5t-69.5 -28.5h-492q-41 0 -69.5 28.5t-28.5 69.5z" />
<glyph unicode="&#x2012;" d="M82 590q0 41 28.5 69.5t69.5 28.5h492q41 0 69.5 -28.5t28.5 -69.5t-28.5 -69.5t-69.5 -28.5h-492q-41 0 -69.5 28.5t-28.5 69.5z" />
<glyph unicode="&#x2013;" horiz-adv-x="1024" d="M-98 590q0 41 28.5 69.5t69.5 28.5h1024q41 0 69.5 -28.5t28.5 -69.5t-28.5 -69.5t-69.5 -28.5h-1024q-41 0 -69.5 28.5t-28.5 69.5z" />
<glyph unicode="&#x2014;" horiz-adv-x="2048" d="M-98 590q0 41 28.5 69.5t69.5 28.5h2048q41 0 69.5 -28.5t28.5 -69.5t-28.5 -69.5t-69.5 -28.5h-2048q-41 0 -69.5 28.5t-28.5 69.5z" />
<glyph unicode="&#x2018;" horiz-adv-x="393" d="M70 1049v98q0 60 33.5 110.5t89.5 73.5q36 17 70 1.5t52 -52.5q13 -35 -1.5 -69.5t-49.5 -51.5q-8 -3 -8 -12v-10q29 -7 47.5 -32t18.5 -56q0 -38 -27.5 -66.5t-65.5 -28.5h-65q-40 0 -67 28t-27 67z" />
<glyph unicode="&#x2019;" horiz-adv-x="393" d="M70 1237q0 39 26.5 65.5t67.5 26.5h65q38 0 65.5 -27t27.5 -65v-98q0 -61 -33.5 -111.5t-89.5 -73.5q-35 -17 -71 -1.5t-50 51.5q-16 37 -1.5 70.5t50.5 51.5q8 3 8 13v8q-29 11 -47 35t-18 55z" />
<glyph unicode="&#x201a;" horiz-adv-x="391" d="M70 98q0 39 26.5 65.5t67.5 26.5h65q38 0 65.5 -27t27.5 -65v-98q0 -61 -33.5 -111t-89.5 -73q-35 -17 -71 -2t-50 51q-16 37 -1.5 71t50.5 52q8 3 8 12v8q-29 11 -47 35t-18 55z" />
<glyph unicode="&#x201c;" horiz-adv-x="759" d="M70 1049v98q0 60 33 110.5t90 73.5q36 16 69 1.5t51 -52.5q16 -36 1.5 -69.5t-50.5 -51.5q-8 -3 -8 -12v-10q29 -7 47.5 -32t18.5 -56q0 -38 -28.5 -66.5t-66.5 -28.5h-65q-38 0 -65 28t-27 67zM438 1049v98q0 60 33 110.5t90 73.5q36 16 69.5 1.5t51.5 -52.5 q16 -36 1.5 -69.5t-50.5 -51.5q-8 -3 -8 -12v-10q29 -7 47 -32t18 -56q0 -38 -28 -66.5t-66 -28.5h-66q-38 0 -65 28t-27 67z" />
<glyph unicode="&#x201d;" horiz-adv-x="761" d="M72 1237q0 38 27 65t65 27h65q39 0 67 -27t28 -65v-98q0 -61 -33.5 -111.5t-89.5 -73.5q-37 -16 -71 -1t-52 51q-16 37 -1.5 70.5t52.5 51.5q8 3 8 13v8q-29 11 -47 35t-18 55zM440 1237q0 38 27 65t65 27h66q38 0 66 -27t28 -65v-98q0 -61 -33.5 -111.5t-89.5 -73.5 q-37 -16 -71 -1t-52 51q-16 37 -1 70.5t53 51.5q8 3 8 13v8q-30 11 -48 35.5t-18 54.5z" />
<glyph unicode="&#x201e;" horiz-adv-x="761" d="M70 98q0 38 28 65t66 27h65q38 0 65.5 -27t27.5 -65v-98q0 -62 -33 -111.5t-90 -72.5q-36 -16 -69.5 -1.5t-51.5 50.5q-16 37 -1.5 71t50.5 52q8 3 8 12v8q-29 11 -47 35t-18 55zM438 98q0 38 28 65t66 27h66q38 0 65 -27t27 -65v-98q0 -62 -33 -111.5t-90 -72.5 q-36 -16 -69.5 -1.5t-51.5 50.5q-16 37 -1 71t51 52q8 3 8 12v8q-30 11 -48 35.5t-18 54.5z" />
<glyph unicode="&#x2022;" horiz-adv-x="524" d="M31 578q0 94 68.5 162.5t162.5 68.5q96 0 164 -68.5t68 -162.5t-68 -163t-164 -69q-94 0 -162.5 69t-68.5 163zM207 578q0 -23 16 -39.5t39 -16.5t39 16.5t16 39.5t-16 39t-39 16t-39 -16t-16 -39z" />
<glyph unicode="&#x2026;" horiz-adv-x="1179" d="M61 78q0 50 34.5 84.5t84.5 34.5t84.5 -34.5t34.5 -84.5t-34.5 -84.5t-84.5 -34.5t-84.5 34.5t-34.5 84.5zM471 78q0 50 34.5 84.5t84.5 34.5t84.5 -34.5t34.5 -84.5t-34.5 -84.5t-84.5 -34.5t-84.5 34.5t-34.5 84.5zM881 78q0 50 34.5 84.5t83.5 34.5t84 -34.5t35 -84.5 t-35 -84.5t-84 -34.5t-83.5 34.5t-34.5 84.5z" />
<glyph unicode="&#x202f;" horiz-adv-x="363" />
<glyph unicode="&#x2039;" horiz-adv-x="489" d="M78 549q-27 47 0 96l131 238q20 36 59 47.5t76 -8.5q49 -27 49 -86q0 -27 -12 -48q-7 -12 -20.5 -36t-20.5 -37q-45 -81 -64 -117q19 -40 70 -127q32 -57 43 -80q12 -21 12 -47q0 -59 -49 -86q-37 -20 -76 -8.5t-59 47.5z" />
<glyph unicode="&#x203a;" horiz-adv-x="489" d="M88 344q0 26 12 47q8 17 26.5 48t18.5 32q12 20 70 127q-10 17 -33 59.5t-32 57.5q-7 12 -20.5 36.5t-20.5 36.5q-13 23 -13 48q0 60 51 86q35 20 75 8t59 -47l131 -238q27 -49 0 -96l-140 -252q-19 -35 -58.5 -47t-74.5 8q-51 26 -51 86z" />
<glyph unicode="&#x205f;" horiz-adv-x="453" />
<glyph unicode="&#x20ac;" d="M4 487q0 41 28.5 70t69.5 29h66v131h-66q-41 0 -69.5 28.5t-28.5 69.5t28.5 69.5t69.5 28.5h66v86q0 117 71 210t183 122q113 30 221 -14t166 -146l20 -34q21 -35 11 -75.5t-45 -60.5t-75.5 -9t-60.5 46l-20 35q-25 43 -72 62t-94 6q-47 -12 -77.5 -52t-30.5 -90v-86h229 q41 0 69.5 -28.5t28.5 -69.5t-28.5 -69.5t-69.5 -28.5h-229v-131h147q41 0 69.5 -29t28.5 -70t-28.5 -69.5t-69.5 -28.5h-147v-86q0 -51 30 -90t78 -53q48 -12 94.5 7.5t71.5 61.5l20 35q20 35 60.5 46t75.5 -9t45 -60t-11 -75l-20 -35q-57 -102 -166 -147t-221 -13 q-113 29 -183.5 121.5t-70.5 210.5v86h-66q-41 0 -69.5 28.5t-28.5 69.5z" />
<glyph unicode="&#x2122;" horiz-adv-x="1372" d="M25 1237q0 38 27 65t65 27h409q39 0 67 -27t28 -65t-28.5 -66t-66.5 -28h-110v-512q0 -38 -28 -66t-66 -28t-65.5 28t-27.5 66v512h-112q-38 0 -65 28t-27 66zM680 631v614q0 65 63 88q30 10 58.5 0t46.5 -35q17 -22 43 -59q2 -3 35 -50t51 -71q28 38 88 121q35 50 41 59 q19 25 46.5 35t57.5 0q30 -11 48 -34.5t18 -53.5v-614q0 -38 -28 -66t-66 -28t-65 28t-27 66v323q-15 -20 -23 -30q-4 -4 -14 -19q-27 -41 -76 -41q-46 0 -76 41q-10 15 -14 19q-15 15 -21 30v-323q0 -38 -28 -66t-66 -28t-65 28t-27 66z" />
<glyph unicode="&#xe000;" horiz-adv-x="972" d="M0 0v973h973v-973h-973z" />
</font>
</defs>
</svg>
